<?xml version="1.0" encoding="utf-8"?><svg width="267" height="214" viewBox="0 0 267 214" xmlns="http://www.w3.org/2000/svg" xmlns:xlink="http://www.w3.org/1999/xlink"><svg width="21" height="19" viewBox="-4 -4 21 19" id="icon_arrow_right_13x11_gray" x="177" y="61" xmlns="http://www.w3.org/2000/svg"><path d="M7.5.5l4.743 4.743M7.5 10.5l5-5m-12 0h11" fill="none" fill-rule="evenodd" stroke="#666" stroke-linecap="square"/></svg><svg width="24" height="24" viewBox="-4 -4 24 24" id="icon_bag_16x16_gray" x="128" y="176" xmlns="http://www.w3.org/2000/svg"><g fill="none" fill-rule="evenodd"><path stroke="#AEB3BA" stroke-linecap="round" stroke-linejoin="round" d="M13.402 4.508l1.306 9.82H1l1.306-9.832"/><path fill="#AEB3BA" d="M2.2 4h11.2v1H2.2z"/><path stroke="#AEB3BA" stroke-linecap="round" stroke-linejoin="round" d="M10.584 6.327V3.53C10.584 2.134 9.126 1 7.72 1a2.538 2.538 0 0 0-2.545 2.531v2.796"/></g></svg><svg width="26" height="26" viewBox="-4 -4 26 26" id="icon_bell_18x18_department" x="164" y="139" xmlns="http://www.w3.org/2000/svg"><g fill="none" fill-rule="evenodd"><path stroke="#8452C7" d="M9 15c-.124 1.127-.978 2-2.013 2-.98 0-1.798-.784-1.987-1.824M6.908 4c-2.755 0-4.99 2.246-4.99 5.017v4.052L1 15h12l-1.1-1.932v-1.812"/><path stroke="#8452C7" stroke-linejoin="round" d="M13.608 1h-2.216C9.518 1 8 2.585 8 4.541s1.518 3.541 3.392 3.541h.25V10l1.838-1.918h.128C15.48 8.082 17 6.497 17 4.542 17 2.584 15.48 1 13.608 1z"/><path fill="#8452C7" d="M11 4.5a.5.5 0 1 1-1.001-.001A.5.5 0 0 1 11 4.5m4 0a.5.5 0 1 1-1.002-.002A.5.5 0 0 1 15 4.5m-2 0a.501.501 0 1 1-1.002-.002A.501.501 0 0 1 13 4.5"/></g></svg><svg width="26" height="26" viewBox="-4 -4 26 26" id="icon_bell_18x18_outlet" x="76" y="176" xmlns="http://www.w3.org/2000/svg"><g fill="none" fill-rule="evenodd"><path stroke="#6256CF" d="M9 15c-.124 1.127-.978 2-2.013 2-.98 0-1.798-.784-1.987-1.824M6.908 4c-2.755 0-4.99 2.246-4.99 5.017v4.052L1 15h12l-1.1-1.932v-1.812"/><path stroke="#6256CF" stroke-linejoin="round" d="M13.608 1h-2.216C9.518 1 8 2.585 8 4.541s1.518 3.541 3.392 3.541h.25V10l1.838-1.918h.128C15.48 8.082 17 6.497 17 4.542 17 2.584 15.48 1 13.608 1z"/><path fill="#6256CF" d="M11 4.5a.5.5 0 1 1-1.001-.001A.5.5 0 0 1 11 4.5m4 0a.5.5 0 1 1-1.002-.002A.5.5 0 0 1 15 4.5m-2 0a.501.501 0 1 1-1.002-.002A.501.501 0 0 1 13 4.5"/></g></svg><svg width="26" height="26" viewBox="-4 -4 26 26" id="icon_bell_18x18_style" x="102" y="176" xmlns="http://www.w3.org/2000/svg"><g fill="none" fill-rule="evenodd"><path stroke="#BD57E3" d="M9 15c-.124 1.127-.978 2-2.013 2-.98 0-1.798-.784-1.987-1.824M6.908 4c-2.755 0-4.99 2.246-4.99 5.017v4.052L1 15h12l-1.1-1.932v-1.812"/><path stroke="#BD57E3" stroke-linejoin="round" d="M13.608 1h-2.216C9.518 1 8 2.585 8 4.541s1.518 3.541 3.392 3.541h.25V10l1.838-1.918h.128C15.48 8.082 17 6.497 17 4.542 17 2.584 15.48 1 13.608 1z"/><path fill="#BD57E3" d="M11 4.5a.5.5 0 1 1-1.001-.001A.5.5 0 0 1 11 4.5m4 0a.5.5 0 1 1-1.002-.002A.5.5 0 0 1 15 4.5m-2 0a.501.501 0 1 1-1.002-.002A.501.501 0 0 1 13 4.5"/></g></svg><svg width="22" height="20" viewBox="-4 -4 22 20" id="icon_hanger_14x12_department" x="220" y="176" xmlns="http://www.w3.org/2000/svg"><defs><path id="afa" d="M0 0h14.095v11.273H0z"/></defs><g fill="none" fill-rule="evenodd" opacity=".9" transform="translate(.09 .09)"><mask id="afb" fill="#fff"><use xlink:href="#afa"/></mask><path fill="#8452C7" d="M7.433 2.977a.054.054 0 0 0-.013.01l.013-.01zM1.74 9.403h10.278l-5.14-3.977L1.74 9.403zm10.49 0zM12.232 11H1.522A1.523 1.523 0 0 1 .65 8.23l5.738-4.444L7.403 3v-.88a.525.525 0 0 0-1.05 0v.247a.799.799 0 0 1-1.596 0V2.12a2.12 2.12 0 0 1 4.241 0l.001.915c0 .589-.336 1.03-.623 1.229l-.196.151 4.972 3.847c.254.168.602.615.602 1.215 0 .84-.682 1.522-1.522 1.522z" mask="url(#afb)"/></g></svg><svg width="22" height="20" viewBox="-4 -4 22 20" id="icon_hanger_14x12_outlet" x="198" y="176" xmlns="http://www.w3.org/2000/svg"><defs><path id="aga" d="M0 0h14.095v11.273H0z"/></defs><g fill="none" fill-rule="evenodd" opacity=".9" transform="translate(.09 .09)"><mask id="agb" fill="#fff"><use xlink:href="#aga"/></mask><path fill="#6456d6" d="M7.433 2.977a.054.054 0 0 0-.013.01l.013-.01zM1.74 9.403h10.278l-5.14-3.977L1.74 9.403zm10.49 0zM12.232 11H1.522A1.523 1.523 0 0 1 .65 8.23l5.738-4.444L7.403 3v-.88a.525.525 0 0 0-1.05 0v.247a.799.799 0 0 1-1.596 0V2.12a2.12 2.12 0 0 1 4.241 0l.001.915c0 .589-.336 1.03-.623 1.229l-.196.151 4.972 3.847c.254.168.602.615.602 1.215 0 .84-.682 1.522-1.522 1.522z" mask="url(#agb)"/></g></svg><svg width="22" height="20" viewBox="-4 -4 22 20" id="icon_hanger_14x12_style" x="176" y="176" xmlns="http://www.w3.org/2000/svg"><defs><path id="aha" d="M0 0h14.095v11.273H0z"/></defs><g fill="none" fill-rule="evenodd" opacity=".9" transform="translate(.09 .09)"><mask id="ahb" fill="#fff"><use xlink:href="#aha"/></mask><path fill="#bd57e3" d="M7.433 2.977a.054.054 0 0 0-.013.01l.013-.01zM1.74 9.403h10.278l-5.14-3.977L1.74 9.403zm10.49 0zM12.232 11H1.522A1.523 1.523 0 0 1 .65 8.23l5.738-4.444L7.403 3v-.88a.525.525 0 0 0-1.05 0v.247a.799.799 0 0 1-1.596 0V2.12a2.12 2.12 0 0 1 4.241 0l.001.915c0 .589-.336 1.03-.623 1.229l-.196.151 4.972 3.847c.254.168.602.615.602 1.215 0 .84-.682 1.522-1.522 1.522z" mask="url(#ahb)"/></g></svg><svg width="19" height="20" viewBox="-4 -4 19 20" id="icon_hashtag_11x12_white" x="178" y="36" xmlns="http://www.w3.org/2000/svg"><path fill="#FFF" fill-rule="evenodd" d="M.768 11.2l.992-2.832H0l.272-1.104h1.872l1.184-3.392H1.376l.288-1.104h2.048L4.672 0h1.136l-.976 2.768h3.056L8.848 0h1.136l-.976 2.768h1.776l-.288 1.104H8.64l-1.2 3.392h1.968L9.12 8.368H7.056L6.08 11.2H4.944l.992-2.832H2.88L1.904 11.2H.768zM3.28 7.264h3.024l1.2-3.392h-3.04L3.28 7.264z"/></svg><svg width="20" height="20" viewBox="-4 -4 20 20" id="icon_hashtag_12x12_black" x="242" y="176" xmlns="http://www.w3.org/2000/svg"><path fill="#222" fill-rule="evenodd" d="M1.276 12l.992-2.832H.508L.78 8.064h1.872l1.184-3.392H1.884l.288-1.104H4.22L5.18.8h1.136L5.34 3.568h3.056L9.356.8h1.136l-.976 2.768h1.776l-.288 1.104H9.148l-1.2 3.392h1.968l-.288 1.104H7.564L6.588 12H5.452l.992-2.832H3.388L2.412 12H1.276zm2.512-3.936h3.024l1.2-3.392h-3.04L3.788 8.064z"/></svg><svg width="38" height="38" viewBox="-4 -4 38 38" id="icon_heart_30x30_black" x="38" y="176" xmlns="http://www.w3.org/2000/svg"><g fill="none" fill-rule="evenodd"><circle cx="15" cy="15" r="15" fill="#000" fill-opacity=".25"/><path stroke="#FFF" stroke-width="1.5" d="M13.812 11.02a3.345 3.345 0 0 0-4.81 0C7.665 12.381 7.665 14.601 9 15.966L14.988 22l6.179-6.224c1.167-1.355 1.105-3.455-.168-4.756A3.337 3.337 0 0 0 18.594 10c-.91 0-1.764.361-2.407 1.02l-2.644 2.673a1.7 1.7 0 0 0 0 2.424c.676.67 1.778.67 2.456 0l2.577-2.594"/></g></svg><svg width="38" height="38" viewBox="-4 -4 38 38" id="icon_heart_30x30_red" y="176" xmlns="http://www.w3.org/2000/svg"><g fill="none" fill-rule="evenodd"><circle cx="15" cy="15" r="15" fill="#FE424A" fill-opacity=".9"/><path stroke="#FFF" stroke-width="1.5" d="M13.812 11.02a3.345 3.345 0 0 0-4.81 0C7.665 12.381 7.665 14.601 9 15.966L14.988 22l6.179-6.224c1.167-1.355 1.105-3.455-.168-4.756A3.337 3.337 0 0 0 18.594 10c-.91 0-1.764.361-2.407 1.02l-2.644 2.673a1.7 1.7 0 0 0 0 2.424c.676.67 1.778.67 2.456 0l2.577-2.594"/></g></svg><svg width="15" height="17" viewBox="-4 -4 15 17" id="icon_pause_7x9_white" x="251" y="143" xmlns="http://www.w3.org/2000/svg"><defs><path id="amb" d="M0 .5h2v7H0z"/><filter id="ama" width="150%" height="128.6%" x="-25%" y="-7.1%" filterUnits="objectBoundingBox"><feOffset dy="1" in="SourceAlpha" result="shadowOffsetOuter1"/><feColorMatrix in="shadowOffsetOuter1" values="0 0 0 0 0 0 0 0 0 0 0 0 0 0 0 0 0 0 0.2 0"/></filter><path id="amd" d="M5 .5h2v7H5z"/><filter id="amc" width="150%" height="128.6%" x="-25%" y="-7.1%" filterUnits="objectBoundingBox"><feOffset dy="1" in="SourceAlpha" result="shadowOffsetOuter1"/><feColorMatrix in="shadowOffsetOuter1" values="0 0 0 0 0 0 0 0 0 0 0 0 0 0 0 0 0 0 0.2 0"/></filter></defs><g fill="none" fill-rule="evenodd"><use fill="#000" filter="url(#ama)" xlink:href="#amb"/><use fill="#FFF" xlink:href="#amb"/><g><use fill="#000" filter="url(#amc)" xlink:href="#amd"/><use fill="#FFF" xlink:href="#amd"/></g></g></svg><svg width="16" height="19" viewBox="-4 -4 16 19" id="icon_play_8x11_white" x="142" y="102" xmlns="http://www.w3.org/2000/svg"><defs><path id="anb" d="M8.397 5.541v9l7-4.5z"/><filter id="ana" width="114.3%" height="122.2%" x="-7.1%" y="-5.6%" filterUnits="objectBoundingBox"><feOffset dy="1" in="SourceAlpha" result="shadowOffsetOuter1"/><feColorMatrix in="shadowOffsetOuter1" values="0 0 0 0 0 0 0 0 0 0 0 0 0 0 0 0 0 0 0.2 0"/></filter></defs><g fill="none" fill-rule="evenodd" transform="translate(-8 -5)"><use fill="#000" filter="url(#ana)" xlink:href="#anb"/><use fill="#FFF" xlink:href="#anb"/></g></svg><svg width="24" height="21" viewBox="-4 -4 24 21" id="icon_scrap_16x13_gray" x="152" y="176" xmlns="http://www.w3.org/2000/svg"><path fill="none" fill-rule="evenodd" stroke="#BBB" d="M6.812 2.02a3.345 3.345 0 0 0-4.81 0C.665 3.381.665 5.601 2 6.966L7.988 13l6.179-6.224c1.167-1.355 1.105-3.455-.168-4.756A3.337 3.337 0 0 0 11.594 1c-.91 0-1.764.361-2.407 1.02L6.543 4.692a1.7 1.7 0 0 0 0 2.424c.676.67 1.778.67 2.456 0l2.577-2.594"/></svg><svg width="26" height="26" viewBox="-4 -4 26 26" id="icon_search_18x18_black" x="138" y="139" xmlns="http://www.w3.org/2000/svg"><g fill="none" fill-rule="evenodd" stroke="#25262D" stroke-width="2" transform="translate(1 1)"><circle cx="6.5" cy="6.5" r="6.5"/><path stroke-linecap="square" d="M11.5 11.5l4 4"/></g></svg><svg width="24" height="24" viewBox="-4 -4 24 24" id="icon_store_16x16_gray" x="243" y="96" xmlns="http://www.w3.org/2000/svg"><g fill="none" fill-rule="evenodd" stroke="#AEB3BA"><path d="M15 4v11H1V4"/><path d="M2.75 1L1 4.459C1 5.863 2.22 7 3.724 7a2.78 2.78 0 0 0 2.126-.97c.5.586 1.261.97 2.126.97a2.77 2.77 0 0 0 2.15-1c.499.605 1.272 1 2.152 1C13.782 7 15 5.863 15 4.459L13.25 1H2.75zM6 15v-5h4v5"/></g></svg><svg width="26" height="20" viewBox="-4 -4 26 20" id="icon_view_18x12_gray" x="241" y="123" xmlns="http://www.w3.org/2000/svg"><g fill="none" fill-rule="evenodd" stroke="#BBB"><path stroke-linejoin="round" d="M9 1C5.365 1 2.26 3.069 1 5.993 2.26 8.93 5.365 11 9 11s6.74-2.07 8-4.993C15.74 3.069 12.635 1 9 1z"/><path d="M9 9a3 3 0 1 1 0-6 3 3 0 0 1 0 6z"/></g></svg><svg width="43" height="20" viewBox="-4 -4 43 20" id="text_best_35x12_black" x="198" y="123" xmlns="http://www.w3.org/2000/svg"><text fill="#333" fill-rule="evenodd" font-family="AppleSDGothicNeo-SemiBold, Apple SD Gothic Neo" font-size="15" font-weight="500" transform="translate(-98 -19)"><tspan x="95.149" y="30"> </tspan> <tspan x="99.094" y="30" font-family="Georgia-BoldItalic, Georgia" font-style="italic" font-weight="bold">Best</tspan></text></svg><svg width="74" height="25" viewBox="-4 -4 74 25" id="text_brand_66x17_black" x="104" y="36" xmlns="http://www.w3.org/2000/svg"><text fill-rule="evenodd" font-family="Georgia-BoldItalic, Georgia" font-size="20" font-style="italic" font-weight="bold" letter-spacing="-.455" transform="translate(-62 -2)"><tspan x="63" y="18">Bran</tspan> <tspan x="114.043" y="18" letter-spacing="-.413">d</tspan></text></svg><svg width="73" height="37" viewBox="-4 -4 73 37" id="text_brand_news_65x29_department" y="102" xmlns="http://www.w3.org/2000/svg"><path fill="#5922A4" fill-rule="evenodd" d="M9.836 3.078c0-.516-.163-.893-.488-1.133-.326-.24-.754-.36-1.286-.36a12.71 12.71 0 0 0-.695.033l-.969 4.171h.524c.896 0 1.605-.249 2.129-.746.523-.497.785-1.152.785-1.965zm-.61 5.258c0-.599-.192-1.059-.578-1.379-.385-.32-.955-.48-1.71-.48a9.517 9.517 0 0 0-.703.031l-.954 4.125c.005.193.149.357.43.492s.594.203.937.203c.693 0 1.296-.279 1.809-.836.513-.557.77-1.276.77-2.156zM9.017.914c1.338 0 2.321.165 2.949.496.627.33.941.837.941 1.52 0 .453-.1.851-.3 1.195a2.771 2.771 0 0 1-.793.867c-.329.24-.708.44-1.137.602a8.89 8.89 0 0 1-1.332.383l-.031.148c.359.036.725.113 1.097.23.373.118.692.267.957.45.287.192.513.427.68.703.167.276.25.612.25 1.008 0 1.14-.478 2.006-1.434 2.597-.955.591-2.366.887-4.23.887H.57l.133-.57c.13-.006.324-.025.582-.059.258-.034.45-.072.574-.113a.958.958 0 0 0 .465-.305c.107-.135.181-.294.223-.476l1.789-7.75c.026-.11.044-.201.055-.274.01-.073.015-.127.015-.164 0-.219-.11-.39-.332-.512-.221-.122-.582-.22-1.082-.293l.133-.57h5.89zM22.11 3.242c0-.557-.175-.972-.527-1.246-.352-.273-.86-.41-1.527-.41h-.532l-1.085 4.71h.757c.85 0 1.547-.266 2.094-.8.547-.534.82-1.285.82-2.254zm-4.586 6.992c-.02.089-.037.172-.05.25-.013.079-.02.138-.02.18 0 .234.096.406.29.516.192.11.56.192 1.1.25l-.132.57H12.72l.133-.57c.13-.006.324-.025.582-.059.257-.034.449-.072.574-.113a.958.958 0 0 0 .465-.305c.106-.135.18-.294.222-.476l1.79-7.75c.025-.11.044-.201.054-.274.01-.073.016-.127.016-.164 0-.219-.111-.39-.332-.512-.222-.122-.582-.22-1.082-.293l.132-.57h6.11c1.27 0 2.225.18 2.863.54.638.359.957.903.957 1.632 0 .86-.31 1.58-.93 2.16-.62.58-1.494 1.007-2.625 1.277a259.72 259.72 0 0 0 1.945 3.46c.126.225.289.48.489.763.2.284.413.465.637.543.11.037.26.068.453.094.193.026.33.041.414.047l-.14.57h-4.048a49.784 49.784 0 0 0-1.253-2.691 45.325 45.325 0 0 0-1.301-2.332h-.563l-.758 3.257zM32.875 7.54l-.68-4.039-2.53 4.04h3.21zM31.625 12l.133-.57c.536-.042.954-.108 1.254-.2.3-.09.449-.19.449-.3a1.53 1.53 0 0 0-.016-.242 10.94 10.94 0 0 0-.039-.235l-.39-2.18h-3.82c-.126.193-.283.447-.473.762s-.35.585-.48.809c-.199.354-.315.596-.348.726-.034.13-.051.214-.051.25 0 .157.122.285.367.387.245.102.62.176 1.125.223l-.133.57h-4.656l.133-.57c.15-.01.34-.037.57-.078.23-.042.422-.105.578-.188.219-.115.425-.263.617-.445a3.56 3.56 0 0 0 .54-.664 965.843 965.843 0 0 0 2.913-4.504L32.977.758h1.546l.997 5.789c.263 1.526.493 2.802.69 3.828.027.156.078.298.153.426a1.2 1.2 0 0 0 .364.363c.125.083.277.146.457.188.18.041.347.067.504.078l-.133.57h-5.93zM52.75.914l-.133.57c-.146.016-.358.043-.637.082a2.07 2.07 0 0 0-.816.309c-.224.14-.415.383-.574.727-.159.343-.317.846-.473 1.507l-1.836 7.954H46.97L42.18 3.18l-1.265 5.547c-.068.291-.12.565-.156.82a4.547 4.547 0 0 0-.055.61c0 .213.021.378.063.495a.773.773 0 0 0 .18.293c.12.12.329.224.628.313.3.088.522.146.668.172l-.133.57h-4.765l.133-.57c.14-.021.363-.058.668-.11.304-.052.566-.146.785-.28.229-.147.422-.385.578-.716.156-.33.31-.834.46-1.511l1.204-5.22c.026-.119.048-.232.066-.34a1.752 1.752 0 0 0-.027-.741 1.002 1.002 0 0 0-.203-.395 1.473 1.473 0 0 0-.54-.41 3.23 3.23 0 0 0-.75-.223l.141-.57h4.094l4.188 7.813 1.039-4.54c.073-.333.126-.605.16-.816a3.7 3.7 0 0 0 .05-.59c0-.203-.022-.368-.066-.496a.819.819 0 0 0-.191-.316c-.115-.115-.317-.218-.606-.309a5.324 5.324 0 0 0-.668-.176l.133-.57h4.758zm9.875.898c.578.36 1.031.83 1.36 1.41.328.581.492 1.268.492 2.06 0 .989-.196 1.903-.586 2.741a6.056 6.056 0 0 1-1.657 2.141 7.538 7.538 0 0 1-2.468 1.363c-.938.315-1.972.473-3.102.473h-5.781l.133-.57a9.03 9.03 0 0 0 .582-.051 3.01 3.01 0 0 0 .574-.106.934.934 0 0 0 .465-.312c.106-.14.18-.302.222-.484l1.79-7.75c.025-.11.044-.201.054-.274.01-.073.016-.127.016-.164 0-.219-.11-.39-.332-.512-.222-.122-.582-.22-1.082-.293l.133-.57h5.68a8.24 8.24 0 0 1 1.8.207 5.486 5.486 0 0 1 1.707.692zm-2.313 7.461a7.42 7.42 0 0 0 .82-2.058 9.983 9.983 0 0 0 .266-2.324c0-1.01-.229-1.814-.687-2.41-.458-.597-1.148-.895-2.07-.895a23.212 23.212 0 0 0-.969.032l-1.914 8.32a2.43 2.43 0 0 0-.055.285 1.994 1.994 0 0 0-.023.238c0 .328.12.555.363.68.242.125.582.187 1.02.187.708 0 1.337-.187 1.886-.562a4.514 4.514 0 0 0 1.364-1.493zm-44.601 7.641l-.133.57c-.146.016-.358.043-.637.082a2.07 2.07 0 0 0-.816.309c-.224.14-.415.383-.574.727-.16.343-.317.846-.473 1.507l-1.836 7.953H9.93L5.14 19.18l-1.265 5.547c-.068.291-.12.565-.156.82a4.547 4.547 0 0 0-.055.61c0 .213.02.378.063.495a.773.773 0 0 0 .18.293c.119.12.329.224.628.313.3.088.522.146.668.172L5.07 28H.305l.133-.57c.14-.021.363-.058.667-.11.305-.052.567-.146.786-.28.229-.147.421-.385.578-.716.156-.33.31-.834.46-1.512l1.204-5.218c.026-.12.048-.233.066-.34a1.752 1.752 0 0 0-.027-.742 1.002 1.002 0 0 0-.203-.395 1.473 1.473 0 0 0-.54-.41 3.23 3.23 0 0 0-.75-.223l.141-.57h4.094l4.188 7.813 1.039-4.54c.073-.333.126-.605.16-.816a3.7 3.7 0 0 0 .05-.59c0-.203-.022-.368-.066-.496a.819.819 0 0 0-.191-.316c-.115-.115-.317-.218-.606-.309a5.324 5.324 0 0 0-.668-.176l.133-.57h4.758zm10.437 0l-.648 2.828h-.594a3.264 3.264 0 0 0-.527-1.363c-.279-.414-.572-.655-.879-.723a3.144 3.144 0 0 0-.633-.066 25.098 25.098 0 0 0-.687-.012h-1.532l-1 4.336h1.063c.39 0 .697-.043.918-.129a2.31 2.31 0 0 0 .621-.363c.146-.12.316-.335.512-.645.195-.31.334-.574.418-.793h.593l-1.07 4.625h-.594v-.289c0-.234-.024-.475-.074-.722-.05-.248-.108-.42-.176-.52a.963.963 0 0 0-.539-.394 2.746 2.746 0 0 0-.765-.098h-1.063l-.71 3.086a7.983 7.983 0 0 0-.102.508 2.66 2.66 0 0 0-.047.39c0 .334.11.543.328.63.219.085.622.128 1.21.128.75 0 1.298-.032 1.642-.098.343-.065.601-.165.773-.3.312-.26.687-.66 1.125-1.196.437-.536.734-.932.89-1.187h.57L24.165 28h-10.32l.133-.57a9.03 9.03 0 0 0 .582-.051 3.01 3.01 0 0 0 .574-.106.934.934 0 0 0 .465-.312c.106-.14.18-.302.222-.484l1.79-7.75c.025-.11.044-.201.054-.274.01-.073.016-.127.016-.164 0-.219-.111-.39-.332-.512-.222-.122-.582-.22-1.082-.293l.132-.57h9.75zm19.579 0l-.141.57a2.047 2.047 0 0 0-.516.118 5.325 5.325 0 0 0-.5.21 2.03 2.03 0 0 0-.586.418c-.14.154-.286.359-.437.614a439.23 439.23 0 0 0-2.25 3.86 2322.63 2322.63 0 0 0-3.125 5.421h-1.625l-1-8.188-4.5 8.188h-1.563c-.218-1.953-.42-3.79-.605-5.508a606.955 606.955 0 0 0-.418-3.805c-.037-.276-.095-.48-.176-.613-.08-.133-.22-.27-.418-.41a1.404 1.404 0 0 0-.406-.2 3.268 3.268 0 0 0-.508-.105l.133-.57h5.797l-.14.57a8.495 8.495 0 0 0-.876.133 1.869 1.869 0 0 0-.469.156c-.093.053-.148.111-.164.176a.85.85 0 0 0-.023.2c0 .104.005.225.016.363a128.275 128.275 0 0 0 .27 2.773c.111 1.06.237 2.296.378 3.707l4.367-8.078h1.664l1.008 8.328c.62-1.12 1.195-2.165 1.727-3.137.53-.97.953-1.759 1.265-2.363.193-.37.36-.713.504-1.031.143-.318.215-.523.215-.617 0-.162-.137-.295-.41-.399-.274-.104-.673-.174-1.2-.21l.141-.57h4.57zm2.601 11.383a7.845 7.845 0 0 1-1.855-.227 6.531 6.531 0 0 1-1.637-.617l-.672.547H43.5l.828-4.008H45c.063.39.177.796.344 1.215.166.42.383.793.648 1.121.26.339.591.62.992.844.401.224.86.336 1.375.336.756 0 1.36-.184 1.813-.551.453-.367.68-.85.68-1.45 0-.385-.13-.723-.387-1.015-.258-.291-.673-.541-1.246-.75l-1.059-.379a18.557 18.557 0 0 1-.972-.379c-.61-.255-1.068-.618-1.376-1.09a2.707 2.707 0 0 1-.46-1.503c0-.49.112-.96.336-1.41.223-.451.546-.853.968-1.208.412-.349.92-.628 1.528-.84a6.043 6.043 0 0 1 1.996-.316c.604 0 1.203.087 1.797.262.593.174 1.03.342 1.312.504l.586-.469h.68l-.813 3.781h-.672a7.836 7.836 0 0 0-.293-1.25 3.848 3.848 0 0 0-.527-1.054 2.47 2.47 0 0 0-.816-.723c-.326-.18-.718-.27-1.176-.27-.636 0-1.166.178-1.59.532-.425.354-.637.8-.637 1.336 0 .375.128.703.383.984s.659.526 1.211.734c.323.12.661.244 1.016.371.354.128.692.26 1.015.395.604.25 1.081.59 1.43 1.02.349.43.523.938.523 1.527a3.35 3.35 0 0 1-.382 1.57 3.82 3.82 0 0 1-1.07 1.266 5.314 5.314 0 0 1-1.696.863c-.646.2-1.357.3-2.133.3z"/></svg><svg width="73" height="37" viewBox="-4 -4 73 37" id="text_brand_news_65x29_outlet" x="104" y="61" xmlns="http://www.w3.org/2000/svg"><path fill="#332392" fill-rule="evenodd" d="M9.836 3.078c0-.516-.163-.893-.488-1.133-.326-.24-.754-.36-1.286-.36a12.71 12.71 0 0 0-.695.033l-.969 4.171h.524c.896 0 1.605-.249 2.129-.746.523-.497.785-1.152.785-1.965zm-.61 5.258c0-.599-.192-1.059-.578-1.379-.385-.32-.955-.48-1.71-.48a9.517 9.517 0 0 0-.703.031l-.954 4.125c.005.193.149.357.43.492s.594.203.937.203c.693 0 1.296-.279 1.809-.836.513-.557.77-1.276.77-2.156zM9.017.914c1.338 0 2.321.165 2.949.496.627.33.941.837.941 1.52 0 .453-.1.851-.3 1.195a2.771 2.771 0 0 1-.793.867c-.329.24-.708.44-1.137.602a8.89 8.89 0 0 1-1.332.383l-.031.148c.359.036.725.113 1.097.23.373.118.692.267.957.45.287.192.513.427.68.703.167.276.25.612.25 1.008 0 1.14-.478 2.006-1.434 2.597-.955.591-2.366.887-4.23.887H.57l.133-.57c.13-.006.324-.025.582-.059.258-.034.45-.072.574-.113a.958.958 0 0 0 .465-.305c.107-.135.181-.294.223-.476l1.789-7.75c.026-.11.044-.201.055-.274.01-.073.015-.127.015-.164 0-.219-.11-.39-.332-.512-.221-.122-.582-.22-1.082-.293l.133-.57h5.89zM22.11 3.242c0-.557-.175-.972-.527-1.246-.352-.273-.86-.41-1.527-.41h-.532l-1.085 4.71h.757c.85 0 1.547-.266 2.094-.8.547-.534.82-1.285.82-2.254zm-4.586 6.992c-.02.089-.037.172-.05.25-.013.079-.02.138-.02.18 0 .234.096.406.29.516.192.11.56.192 1.1.25l-.132.57H12.72l.133-.57c.13-.006.324-.025.582-.059.257-.034.449-.072.574-.113a.958.958 0 0 0 .465-.305c.106-.135.18-.294.222-.476l1.79-7.75c.025-.11.044-.201.054-.274.01-.073.016-.127.016-.164 0-.219-.111-.39-.332-.512-.222-.122-.582-.22-1.082-.293l.132-.57h6.11c1.27 0 2.225.18 2.863.54.638.359.957.903.957 1.632 0 .86-.31 1.58-.93 2.16-.62.58-1.494 1.007-2.625 1.277a259.72 259.72 0 0 0 1.945 3.46c.126.225.289.48.489.763.2.284.413.465.637.543.11.037.26.068.453.094.193.026.33.041.414.047l-.14.57h-4.048a49.784 49.784 0 0 0-1.253-2.691 45.325 45.325 0 0 0-1.301-2.332h-.563l-.758 3.257zM32.875 7.54l-.68-4.039-2.53 4.04h3.21zM31.625 12l.133-.57c.536-.042.954-.108 1.254-.2.3-.09.449-.19.449-.3a1.53 1.53 0 0 0-.016-.242 10.94 10.94 0 0 0-.039-.235l-.39-2.18h-3.82c-.126.193-.283.447-.473.762s-.35.585-.48.809c-.199.354-.315.596-.348.726-.034.13-.051.214-.051.25 0 .157.122.285.367.387.245.102.62.176 1.125.223l-.133.57h-4.656l.133-.57c.15-.01.34-.037.57-.078.23-.042.422-.105.578-.188.219-.115.425-.263.617-.445a3.56 3.56 0 0 0 .54-.664 965.843 965.843 0 0 0 2.913-4.504L32.977.758h1.546l.997 5.789c.263 1.526.493 2.802.69 3.828.027.156.078.298.153.426a1.2 1.2 0 0 0 .364.363c.125.083.277.146.457.188.18.041.347.067.504.078l-.133.57h-5.93zM52.75.914l-.133.57c-.146.016-.358.043-.637.082a2.07 2.07 0 0 0-.816.309c-.224.14-.415.383-.574.727-.159.343-.317.846-.473 1.507l-1.836 7.954H46.97L42.18 3.18l-1.265 5.547c-.068.291-.12.565-.156.82a4.547 4.547 0 0 0-.055.61c0 .213.021.378.063.495a.773.773 0 0 0 .18.293c.12.12.329.224.628.313.3.088.522.146.668.172l-.133.57h-4.765l.133-.57c.14-.021.363-.058.668-.11.304-.052.566-.146.785-.28.229-.147.422-.385.578-.716.156-.33.31-.834.46-1.511l1.204-5.22c.026-.119.048-.232.066-.34a1.752 1.752 0 0 0-.027-.741 1.002 1.002 0 0 0-.203-.395 1.473 1.473 0 0 0-.54-.41 3.23 3.23 0 0 0-.75-.223l.141-.57h4.094l4.188 7.813 1.039-4.54c.073-.333.126-.605.16-.816a3.7 3.7 0 0 0 .05-.59c0-.203-.022-.368-.066-.496a.819.819 0 0 0-.191-.316c-.115-.115-.317-.218-.606-.309a5.324 5.324 0 0 0-.668-.176l.133-.57h4.758zm9.875.898c.578.36 1.031.83 1.36 1.41.328.581.492 1.268.492 2.06 0 .989-.196 1.903-.586 2.741a6.056 6.056 0 0 1-1.657 2.141 7.538 7.538 0 0 1-2.468 1.363c-.938.315-1.972.473-3.102.473h-5.781l.133-.57a9.03 9.03 0 0 0 .582-.051 3.01 3.01 0 0 0 .574-.106.934.934 0 0 0 .465-.312c.106-.14.18-.302.222-.484l1.79-7.75c.025-.11.044-.201.054-.274.01-.073.016-.127.016-.164 0-.219-.11-.39-.332-.512-.222-.122-.582-.22-1.082-.293l.133-.57h5.68a8.24 8.24 0 0 1 1.8.207 5.486 5.486 0 0 1 1.707.692zm-2.313 7.461a7.42 7.42 0 0 0 .82-2.058 9.983 9.983 0 0 0 .266-2.324c0-1.01-.229-1.814-.687-2.41-.458-.597-1.148-.895-2.07-.895a23.212 23.212 0 0 0-.969.032l-1.914 8.32a2.43 2.43 0 0 0-.055.285 1.994 1.994 0 0 0-.023.238c0 .328.12.555.363.68.242.125.582.187 1.02.187.708 0 1.337-.187 1.886-.562a4.514 4.514 0 0 0 1.364-1.493zm-44.601 7.641l-.133.57c-.146.016-.358.043-.637.082a2.07 2.07 0 0 0-.816.309c-.224.14-.415.383-.574.727-.16.343-.317.846-.473 1.507l-1.836 7.953H9.93L5.14 19.18l-1.265 5.547c-.068.291-.12.565-.156.82a4.547 4.547 0 0 0-.055.61c0 .213.02.378.063.495a.773.773 0 0 0 .18.293c.119.12.329.224.628.313.3.088.522.146.668.172L5.07 28H.305l.133-.57c.14-.021.363-.058.667-.11.305-.052.567-.146.786-.28.229-.147.421-.385.578-.716.156-.33.31-.834.46-1.512l1.204-5.218c.026-.12.048-.233.066-.34a1.752 1.752 0 0 0-.027-.742 1.002 1.002 0 0 0-.203-.395 1.473 1.473 0 0 0-.54-.41 3.23 3.23 0 0 0-.75-.223l.141-.57h4.094l4.188 7.813 1.039-4.54c.073-.333.126-.605.16-.816a3.7 3.7 0 0 0 .05-.59c0-.203-.022-.368-.066-.496a.819.819 0 0 0-.191-.316c-.115-.115-.317-.218-.606-.309a5.324 5.324 0 0 0-.668-.176l.133-.57h4.758zm10.437 0l-.648 2.828h-.594a3.264 3.264 0 0 0-.527-1.363c-.279-.414-.572-.655-.879-.723a3.144 3.144 0 0 0-.633-.066 25.098 25.098 0 0 0-.687-.012h-1.532l-1 4.336h1.063c.39 0 .697-.043.918-.129a2.31 2.31 0 0 0 .621-.363c.146-.12.316-.335.512-.645.195-.31.334-.574.418-.793h.593l-1.07 4.625h-.594v-.289c0-.234-.024-.475-.074-.722-.05-.248-.108-.42-.176-.52a.963.963 0 0 0-.539-.394 2.746 2.746 0 0 0-.765-.098h-1.063l-.71 3.086a7.983 7.983 0 0 0-.102.508 2.66 2.66 0 0 0-.047.39c0 .334.11.543.328.63.219.085.622.128 1.21.128.75 0 1.298-.032 1.642-.098.343-.065.601-.165.773-.3.312-.26.687-.66 1.125-1.196.437-.536.734-.932.89-1.187h.57L24.165 28h-10.32l.133-.57a9.03 9.03 0 0 0 .582-.051 3.01 3.01 0 0 0 .574-.106.934.934 0 0 0 .465-.312c.106-.14.18-.302.222-.484l1.79-7.75c.025-.11.044-.201.054-.274.01-.073.016-.127.016-.164 0-.219-.111-.39-.332-.512-.222-.122-.582-.22-1.082-.293l.132-.57h9.75zm19.579 0l-.141.57a2.047 2.047 0 0 0-.516.118 5.325 5.325 0 0 0-.5.21 2.03 2.03 0 0 0-.586.418c-.14.154-.286.359-.437.614a439.23 439.23 0 0 0-2.25 3.86 2322.63 2322.63 0 0 0-3.125 5.421h-1.625l-1-8.188-4.5 8.188h-1.563c-.218-1.953-.42-3.79-.605-5.508a606.955 606.955 0 0 0-.418-3.805c-.037-.276-.095-.48-.176-.613-.08-.133-.22-.27-.418-.41a1.404 1.404 0 0 0-.406-.2 3.268 3.268 0 0 0-.508-.105l.133-.57h5.797l-.14.57a8.495 8.495 0 0 0-.876.133 1.869 1.869 0 0 0-.469.156c-.093.053-.148.111-.164.176a.85.85 0 0 0-.023.2c0 .104.005.225.016.363a128.275 128.275 0 0 0 .27 2.773c.111 1.06.237 2.296.378 3.707l4.367-8.078h1.664l1.008 8.328c.62-1.12 1.195-2.165 1.727-3.137.53-.97.953-1.759 1.265-2.363.193-.37.36-.713.504-1.031.143-.318.215-.523.215-.617 0-.162-.137-.295-.41-.399-.274-.104-.673-.174-1.2-.21l.141-.57h4.57zm2.601 11.383a7.845 7.845 0 0 1-1.855-.227 6.531 6.531 0 0 1-1.637-.617l-.672.547H43.5l.828-4.008H45c.063.39.177.796.344 1.215.166.42.383.793.648 1.121.26.339.591.62.992.844.401.224.86.336 1.375.336.756 0 1.36-.184 1.813-.551.453-.367.68-.85.68-1.45 0-.385-.13-.723-.387-1.015-.258-.291-.673-.541-1.246-.75l-1.059-.379a18.557 18.557 0 0 1-.972-.379c-.61-.255-1.068-.618-1.376-1.09a2.707 2.707 0 0 1-.46-1.503c0-.49.112-.96.336-1.41.223-.451.546-.853.968-1.208.412-.349.92-.628 1.528-.84a6.043 6.043 0 0 1 1.996-.316c.604 0 1.203.087 1.797.262.593.174 1.03.342 1.312.504l.586-.469h.68l-.813 3.781h-.672a7.836 7.836 0 0 0-.293-1.25 3.848 3.848 0 0 0-.527-1.054 2.47 2.47 0 0 0-.816-.723c-.326-.18-.718-.27-1.176-.27-.636 0-1.166.178-1.59.532-.425.354-.637.8-.637 1.336 0 .375.128.703.383.984s.659.526 1.211.734c.323.12.661.244 1.016.371.354.128.692.26 1.015.395.604.25 1.081.59 1.43 1.02.349.43.523.938.523 1.527a3.35 3.35 0 0 1-.382 1.57 3.82 3.82 0 0 1-1.07 1.266 5.314 5.314 0 0 1-1.696.863c-.646.2-1.357.3-2.133.3z"/></svg><svg width="101" height="28" viewBox="-4 -4 101 28" id="text_category_93x20_black" y="74" xmlns="http://www.w3.org/2000/svg"><text fill-rule="evenodd" font-family="Georgia-BoldItalic, Georgia" font-size="20" font-style="italic" font-weight="bold" letter-spacing="-.455" transform="translate(-63 -3)"><tspan x="63" y="18">Category</tspan></text></svg><svg width="55" height="19" viewBox="-4 -4 55 19" id="text_coordi_47x11_white" x="198" y="77" xmlns="http://www.w3.org/2000/svg"><path fill="#FFF" fill-rule="evenodd" d="M3.886 10.21c-.973 0-1.732-.244-2.275-.73-.544-.487-.816-1.156-.816-2.006 0-.512.087-.998.26-1.457.174-.46.44-.877.8-1.254.334-.355.764-.645 1.289-.87a4.43 4.43 0 0 1 1.758-.336c.749 0 1.321.138 1.717.413.396.275.593.654.593 1.136 0 .131-.02.277-.063.438a1.13 1.13 0 0 1-.19.406c-.106.136-.222.24-.346.311-.125.072-.313.108-.562.108-.33 0-.587-.081-.771-.244-.185-.163-.277-.333-.277-.511 0-.212.045-.421.134-.629a5.68 5.68 0 0 1 .336-.653.907.907 0 0 0-.685-.273c-.496 0-.906.299-1.232.898-.326.599-.489 1.34-.489 2.225 0 .672.124 1.182.372 1.53.247.346.6.52 1.057.52.465 0 .853-.09 1.164-.27.311-.18.63-.488.956-.923l.457.387a3.93 3.93 0 0 1-1.378 1.295 3.597 3.597 0 0 1-1.809.488zm11.767-4.012c0 .533-.101 1.043-.304 1.53a3.76 3.76 0 0 1-.864 1.27 4.232 4.232 0 0 1-1.412.89c-.54.21-1.146.315-1.819.315-.901 0-1.629-.24-2.183-.72-.555-.48-.832-1.136-.832-1.965a3.847 3.847 0 0 1 1.193-2.831 4.08 4.08 0 0 1 1.372-.835 4.922 4.922 0 0 1 1.758-.308c.956 0 1.71.234 2.263.702.552.467.828 1.118.828 1.952zM13.42 5.48c0-.495-.084-.859-.25-1.091-.168-.233-.41-.35-.728-.35-.325 0-.624.13-.895.39-.27.261-.49.643-.66 1.147a6.643 6.643 0 0 0-.317 1.361 10.29 10.29 0 0 0-.095 1.311c0 .512.084.883.254 1.114.169.23.414.346.736.346.347 0 .647-.142.901-.425.254-.284.455-.633.603-1.048a7.17 7.17 0 0 0 .337-1.349 9.22 9.22 0 0 0 .114-1.406zm10.999.718c0 .533-.102 1.043-.305 1.53-.203.486-.49.91-.863 1.27a4.232 4.232 0 0 1-1.412.89c-.54.21-1.146.315-1.819.315-.901 0-1.63-.24-2.184-.72-.554-.48-.831-1.136-.831-1.965a3.847 3.847 0 0 1 1.193-2.831c.373-.351.83-.63 1.371-.835a4.922 4.922 0 0 1 1.759-.308c.956 0 1.71.234 2.263.702.552.467.828 1.118.828 1.952zm-2.234-.718c0-.495-.084-.859-.251-1.091-.167-.233-.41-.35-.727-.35-.326 0-.624.13-.895.39-.27.261-.49.643-.66 1.147a6.643 6.643 0 0 0-.318 1.361 10.29 10.29 0 0 0-.095 1.311c0 .512.085.883.254 1.114.17.23.415.346.737.346.347 0 .647-.142.9-.425a3.11 3.11 0 0 0 .604-1.048c.148-.406.26-.856.336-1.349a9.22 9.22 0 0 0 .115-1.406zm10.18-.603c0 .19-.028.375-.083.553a1.26 1.26 0 0 1-.247.457c-.123.144-.252.25-.388.32-.135.07-.325.105-.57.105-.318 0-.568-.078-.75-.235-.182-.156-.273-.332-.273-.527 0-.182.027-.338.08-.47.052-.13.136-.33.25-.596a2.792 2.792 0 0 0-.73.435 4.942 4.942 0 0 0-.584.587L28.066 10h-2.1l.875-3.904.099-.463c.04-.19.06-.35.06-.476 0-.246-.048-.413-.143-.502-.095-.089-.278-.133-.549-.133a1.45 1.45 0 0 0-.416.063 5.698 5.698 0 0 0-.365.121l.14-.571c.343-.14.67-.26.984-.359.313-.1.61-.149.889-.149.499 0 .872.098 1.12.295.247.197.411.473.492.828h.044c.42-.444.775-.754 1.067-.93.292-.175.605-.263.94-.263.359 0 .642.113.85.34.207.226.31.553.31.98zm5.28 4.33h-.051c-.148.126-.29.243-.426.349a3.112 3.112 0 0 1-.52.317 3.537 3.537 0 0 1-.58.238 2.245 2.245 0 0 1-.651.086c-.737 0-1.291-.217-1.664-.65-.372-.435-.558-1.028-.558-1.781 0-.58.101-1.124.305-1.632.203-.508.478-.954.825-1.34a3.85 3.85 0 0 1 1.218-.904c.47-.222.963-.333 1.48-.333.389 0 .715.041.977.124.262.082.48.191.654.327l.47-2.063c.012-.06.024-.124.034-.194.011-.07.016-.126.016-.168a.581.581 0 0 0-.108-.355.714.714 0 0 0-.298-.229 1.578 1.578 0 0 0-.406-.12 8.596 8.596 0 0 0-.502-.07l.115-.47 3.56-.165.07.101-1.707 7.383c-.03.122-.065.284-.105.485-.04.201-.06.353-.06.454 0 .241.054.407.162.498.108.091.297.137.568.137.118 0 .261-.023.428-.07.168-.046.285-.085.353-.114l-.14.571c-.419.165-.753.291-1.003.378-.25.087-.54.13-.87.13-.435 0-.783-.086-1.044-.257a1.352 1.352 0 0 1-.542-.663zm.749-4.063a1.37 1.37 0 0 0-.042-.327.836.836 0 0 0-.162-.32.876.876 0 0 0-.298-.251 1.058 1.058 0 0 0-.482-.092c-.271 0-.524.1-.759.301a2.74 2.74 0 0 0-.625.822c-.17.322-.305.704-.406 1.146a6.092 6.092 0 0 0-.153 1.368c0 .207.016.4.048.578.032.177.083.328.155.45a.803.803 0 0 0 .308.305.99.99 0 0 0 .486.108c.199 0 .397-.058.593-.175.197-.116.374-.259.53-.428l.807-3.485zm8.028 3.948l-.14.572c-.419.165-.753.29-1.003.377-.25.087-.54.13-.87.13-.507 0-.902-.123-1.183-.371a1.2 1.2 0 0 1-.422-.943c0-.148.01-.299.031-.453.022-.155.055-.33.102-.524l.52-1.854c.047-.177.086-.346.118-.504a2.22 2.22 0 0 0 .048-.435c0-.237-.05-.402-.146-.495-.098-.093-.284-.14-.559-.14a1.45 1.45 0 0 0-.416.064 5.698 5.698 0 0 0-.365.12l.14-.571c.343-.14.67-.26.984-.359.313-.1.61-.149.888-.149.504 0 .892.122 1.165.365s.41.56.41.95c0 .08-.01.221-.029.424a2.88 2.88 0 0 1-.105.559l-.52 1.847c-.042.148-.08.318-.114.508s-.051.334-.051.432c0 .245.055.412.165.501.11.089.3.133.571.133.127 0 .271-.022.432-.066a2.47 2.47 0 0 0 .349-.118zm.133-7.75c0 .321-.121.595-.365.822-.243.226-.536.34-.879.34-.343 0-.637-.114-.882-.34a1.078 1.078 0 0 1-.368-.822c0-.322.122-.597.368-.825a1.25 1.25 0 0 1 .882-.343c.343 0 .636.114.88.343.243.228.364.503.364.825z" opacity=".4"/></svg><svg width="28" height="24" viewBox="-4 -4 28 24" id="text_dp_20x16_red" x="198" y="143" xmlns="http://www.w3.org/2000/svg"><text fill="#FE424A" fill-rule="evenodd" font-family="Georgia-BoldItalic, Georgia" font-size="15" font-style="italic" font-weight="bold" transform="translate(0 -2)"><tspan x="0" y="14">dp</tspan></text></svg><svg width="65" height="22" viewBox="-4 -4 65 22" id="text_event_57x14_white" x="198" y="55" xmlns="http://www.w3.org/2000/svg"><path fill="#FFF" fill-rule="evenodd" d="M4.997 13.322c-.781 0-1.466-.106-2.056-.317-.589-.212-1.075-.506-1.46-.884a3.675 3.675 0 0 1-.85-1.318 4.677 4.677 0 0 1-.282-1.66c0-.769.143-1.514.43-2.237a5.87 5.87 0 0 1 1.279-1.953c.533-.553 1.21-1.002 2.03-1.348.821-.345 1.726-.517 2.716-.517 1.165 0 2.052.185 2.66.557.61.37.914.927.914 1.67 0 .71-.264 1.32-.791 1.83-.527.512-1.244.89-2.149 1.138-.716.215-1.326.368-1.83.46-.505.09-1.122.175-1.851.253.013.287.052.609.117.967s.163.664.293.918c.156.293.378.526.664.698.287.173.651.259 1.094.259.768 0 1.42-.148 1.958-.444.537-.297 1.05-.767 1.538-1.412l.713.596a6.523 6.523 0 0 1-2.251 1.997 5.95 5.95 0 0 1-2.886.747zm2.207-7.734c0-.553-.1-.978-.303-1.275a.961.961 0 0 0-.84-.444c-.5 0-.974.409-1.42 1.226-.446.817-.731 1.85-.855 3.1A16.67 16.67 0 0 0 4.93 8.02a4.32 4.32 0 0 0 .898-.254c.488-.215.84-.492 1.055-.83.215-.339.322-.788.322-1.348zm15.41-.068c0 .918-.154 1.848-.464 2.793a8.35 8.35 0 0 1-1.303 2.51c-.664.852-1.4 1.48-2.207 1.884a5.566 5.566 0 0 1-2.52.605c-1.159 0-2.08-.27-2.764-.81-.683-.54-1.025-1.315-1.025-2.324 0-.313.052-.648.156-1.006.104-.358.235-.778.39-1.26.131-.41.253-.815.367-1.216.114-.4.171-.78.171-1.137 0-.352-.078-.603-.234-.752-.157-.15-.437-.225-.84-.225a2.23 2.23 0 0 0-.64.098 8.766 8.766 0 0 0-.561.185l.214-.879a20.347 20.347 0 0 1 1.514-.551c.482-.153.938-.23 1.367-.23.775 0 1.372.194 1.792.581.42.388.63.868.63 1.44 0 .424-.057.873-.17 1.348a16.91 16.91 0 0 1-.357 1.28c-.11.338-.226.727-.347 1.167-.12.439-.18.789-.18 1.05 0 .553.133.995.4 1.327.267.332.697.498 1.289.498.885 0 1.654-.33 2.305-.99.65-.662.976-1.552.976-2.672a3.321 3.321 0 0 0-.098-.8c-.071-.15-.211-.31-.42-.479a6.946 6.946 0 0 1-.527-.469 3.009 3.009 0 0 1-.498-.669c-.143-.257-.215-.59-.215-1 0-.346.067-.626.2-.84a1.84 1.84 0 0 1 .484-.528c.156-.11.343-.198.562-.263.218-.066.421-.098.61-.098.605 0 1.08.216 1.426.65.345.432.517 1.026.517 1.782zm5.772 7.802c-.782 0-1.467-.106-2.056-.317-.59-.212-1.076-.506-1.46-.884a3.675 3.675 0 0 1-.85-1.318 4.677 4.677 0 0 1-.283-1.66c0-.769.144-1.514.43-2.237a5.87 5.87 0 0 1 1.28-1.953c.533-.553 1.21-1.002 2.03-1.348.82-.345 1.726-.517 2.715-.517 1.166 0 2.053.185 2.662.557.608.37.913.927.913 1.67 0 .71-.264 1.32-.791 1.83-.528.512-1.244.89-2.149 1.138-.716.215-1.326.368-1.83.46-.505.09-1.122.175-1.851.253.013.287.052.609.117.967s.162.664.293.918c.156.293.377.526.664.698.286.173.65.259 1.093.259.769 0 1.421-.148 1.958-.444.538-.297 1.05-.767 1.539-1.412l.712.596a6.523 6.523 0 0 1-2.25 1.997 5.95 5.95 0 0 1-2.886.747zm2.207-7.734c0-.553-.101-.978-.303-1.275a.961.961 0 0 0-.84-.444c-.501 0-.975.409-1.42 1.226-.447.817-.731 1.85-.855 3.1a16.67 16.67 0 0 0 1.142-.175c.378-.072.677-.157.899-.254.488-.215.84-.492 1.055-.83.214-.339.322-.788.322-1.348zm17.119 5.918l-.215.879c-.644.254-1.159.447-1.543.58-.384.134-.83.201-1.338.201-.775 0-1.377-.194-1.806-.581a1.861 1.861 0 0 1-.645-1.44c0-.157.008-.357.024-.601.017-.244.07-.549.162-.913l.703-2.598c.071-.28.125-.532.16-.757.037-.224.055-.408.055-.551 0-.313-.075-.557-.225-.733-.15-.176-.404-.263-.762-.263-.221 0-.537.086-.947.258-.41.173-.87.493-1.377.962L38.347 13h-3.233l1.387-6.006c.039-.182.09-.42.151-.713a3.66 3.66 0 0 0 .093-.732c0-.371-.076-.627-.23-.767-.152-.14-.43-.21-.834-.21a2.23 2.23 0 0 0-.64.098 8.766 8.766 0 0 0-.562.185l.215-.878a20.347 20.347 0 0 1 1.514-.552c.482-.153.938-.23 1.367-.23.768 0 1.343.152 1.724.454.38.303.633.728.757 1.275h.068a8.137 8.137 0 0 1 1.978-1.353 5.012 5.012 0 0 1 2.172-.483c.723 0 1.288.198 1.695.596.407.397.61.878.61 1.445 0 .15-.011.36-.034.63-.023.27-.077.558-.161.864l-.742 2.744a7.898 7.898 0 0 0-.176.781 4.148 4.148 0 0 0-.078.665c0 .377.083.634.249.771.166.137.457.205.874.205.195 0 .416-.034.664-.102.247-.069.426-.13.537-.181zm4.267 1.748c-.78 0-1.406-.19-1.875-.571-.468-.381-.703-.865-.703-1.45 0-.241.017-.47.05-.684.032-.215.084-.492.155-.83l1.211-5.196H49.03l.235-1.005h1.826l.703-2.96h3.164l-.684 2.96h2.647l-.234 1.005H54.05L52.858 9.72c-.045.182-.09.403-.131.664-.043.26-.064.43-.064.508 0 .37.103.628.308.771.205.143.519.215.942.215.202 0 .48-.04.835-.117.355-.078.604-.143.747-.196l-.215.88a10.57 10.57 0 0 1-1.723.595 6.586 6.586 0 0 1-1.578.215z"/></svg><svg width="94" height="36" viewBox="-4 -4 94 36" id="text_gallery_news_86x28_art" x="104" xmlns="http://www.w3.org/2000/svg"><text fill="#3A5E28" font-family="Georgia" font-size="32" font-style="italic" font-weight="bold" transform="matrix(.5 0 0 .50023 1.04 11.249)"><tspan>GALLERY</tspan><tspan x="0" dy="1em">NEWS</tspan></text></svg><svg width="25" height="18" viewBox="-4 -4 25 18" id="text_gif_17x10_white" x="226" y="143" xmlns="http://www.w3.org/2000/svg"><defs><path id="bbb" d="M26.466 10.567c0 2.1-1.257 3.362-3.379 3.362-2.26 0-3.668-1.536-3.668-4.034 0-2.46 1.402-3.974 3.642-3.974 1.761 0 3.093 1.042 3.346 2.594H25c-.264-.892-.983-1.418-1.934-1.418-1.397 0-2.23 1.036-2.23 2.782 0 1.783.871 2.874 2.268 2.874 1.17 0 1.981-.742 2.003-1.827l.005-.128h-1.869V9.739h3.223v.828zm2.813 3.233h-1.385V6.05h1.385v7.75zm3.05 0h-1.385V6.05h4.941v1.17H32.33v2.288h3.25v1.128h-3.25V13.8z"/><filter id="bba" width="106.1%" height="125%" x="-3%" y="-6.2%" filterUnits="objectBoundingBox"><feOffset dy="1" in="SourceAlpha" result="shadowOffsetOuter1"/><feColorMatrix in="shadowOffsetOuter1" values="0 0 0 0 0 0 0 0 0 0 0 0 0 0 0 0 0 0 0.2 0"/></filter></defs><g fill="none" fill-rule="evenodd" transform="translate(-19 -5)"><use fill="#000" filter="url(#bba)" xlink:href="#bbb"/><use fill="#FFF" xlink:href="#bbb"/></g></svg><svg width="104" height="37" viewBox="-4 -4 104 37" id="text_shopping_news_96x29_department" xmlns="http://www.w3.org/2000/svg"><path fill="#5922A4" fill-rule="evenodd" d="M5.492 12.297a7.845 7.845 0 0 1-1.855-.227A6.531 6.531 0 0 1 2 11.453L1.328 12H.664l.828-4.008h.672c.063.39.177.796.344 1.215.166.42.383.793.648 1.121.26.339.591.62.992.844.401.224.86.336 1.375.336.756 0 1.36-.184 1.813-.551.453-.367.68-.85.68-1.45 0-.385-.13-.723-.387-1.015-.258-.291-.673-.541-1.246-.75l-1.059-.379a18.557 18.557 0 0 1-.972-.379c-.61-.255-1.068-.618-1.375-1.09a2.707 2.707 0 0 1-.461-1.503c0-.49.112-.96.336-1.41.224-.451.546-.853.968-1.208.412-.349.92-.628 1.528-.84A6.043 6.043 0 0 1 7.344.618c.604 0 1.203.087 1.797.262.593.174 1.03.342 1.312.504l.586-.469h.68l-.813 3.781h-.672a7.836 7.836 0 0 0-.293-1.25 3.848 3.848 0 0 0-.527-1.054 2.47 2.47 0 0 0-.816-.723c-.326-.18-.718-.27-1.176-.27-.636 0-1.165.178-1.59.532-.424.354-.637.8-.637 1.336 0 .375.128.703.383.984s.659.526 1.211.734c.323.12.662.244 1.016.371.354.128.692.26 1.015.395.604.25 1.081.59 1.43 1.02.349.43.523.938.523 1.527a3.35 3.35 0 0 1-.382 1.57 3.82 3.82 0 0 1-1.07 1.266 5.314 5.314 0 0 1-1.696.863c-.646.2-1.357.3-2.133.3zM27.023.914l-.132.57c-.162.01-.365.037-.61.079-.245.041-.43.08-.554.117-.214.067-.372.173-.473.316a1.36 1.36 0 0 0-.215.48l-1.789 7.758c-.02.089-.038.172-.05.25-.014.079-.02.138-.02.18 0 .234.1.408.3.52.201.112.575.194 1.122.246l-.133.57h-5.992l.132-.57a97.7 97.7 0 0 0 .578-.047c.25-.021.43-.052.54-.094.203-.073.359-.177.468-.312.11-.136.185-.297.227-.485l.883-3.883h-4.657l-.828 3.625c-.02.089-.037.172-.05.25-.013.079-.02.138-.02.18 0 .234.096.406.29.516.192.11.559.192 1.1.25l-.132.57h-5.992l.132-.57a9.03 9.03 0 0 0 .582-.051 3.01 3.01 0 0 0 .575-.106.934.934 0 0 0 .465-.312c.106-.14.18-.302.222-.484l1.79-7.75c.025-.11.044-.201.054-.274.01-.073.016-.127.016-.164 0-.219-.111-.39-.332-.512-.222-.122-.582-.22-1.082-.293l.132-.57h5.992l-.132.57c-.162.01-.358.037-.59.079-.232.041-.413.08-.543.117-.219.067-.378.175-.477.324a1.482 1.482 0 0 0-.21.473l-.774 3.367h4.656l.719-3.117c.026-.11.044-.201.055-.274.01-.073.015-.127.015-.164 0-.219-.107-.387-.32-.504-.214-.117-.568-.217-1.063-.3l.133-.57h5.992zm12.008 4.25c0 .938-.176 1.843-.527 2.715a6.87 6.87 0 0 1-1.48 2.277 7.29 7.29 0 0 1-2.297 1.57c-.88.386-1.878.579-2.993.579-1.458 0-2.656-.42-3.593-1.262-.938-.841-1.407-1.941-1.407-3.3 0-.99.19-1.921.57-2.794a7.097 7.097 0 0 1 1.579-2.285 7.205 7.205 0 0 1 2.308-1.508A7.245 7.245 0 0 1 33.984.61c1.47 0 2.677.412 3.625 1.235.948.823 1.422 1.93 1.422 3.32zm-4.086 4.094a9.616 9.616 0 0 0 .79-2.348c.171-.846.257-1.68.257-2.504 0-.953-.182-1.703-.547-2.25-.364-.547-.909-.82-1.633-.82-.635 0-1.204.213-1.707.64-.502.428-.925.982-1.27 1.665a9.504 9.504 0 0 0-.788 2.312 12.32 12.32 0 0 0-.274 2.563c0 .922.183 1.662.547 2.222.365.56.912.84 1.64.84.631 0 1.203-.219 1.716-.656a5.173 5.173 0 0 0 1.27-1.664zm16.196-6.016c0 .64-.148 1.215-.442 1.723-.294.508-.717.933-1.27 1.277a6.322 6.322 0 0 1-1.831.742 9.583 9.583 0 0 1-2.23.243h-1.126l-.695 3.007a3.246 3.246 0 0 0-.05.25c-.014.079-.02.138-.02.18 0 .234.096.406.289.516.192.11.57.192 1.132.25l-.132.57h-6.024l.133-.57c.13-.006.324-.025.582-.059.258-.034.45-.072.574-.113a.958.958 0 0 0 .465-.305c.107-.135.181-.294.223-.476l1.789-7.75a3.01 3.01 0 0 0 .054-.274c.01-.073.016-.127.016-.164 0-.219-.11-.39-.332-.512-.221-.122-.582-.22-1.082-.293l.133-.57h6.008c1.291 0 2.254.19 2.886.57.633.38.95.967.95 1.758zm-3.266 1.305a4.52 4.52 0 0 0 .172-1.281c0-.563-.151-.983-.453-1.262-.302-.279-.795-.418-1.477-.418h-.57l-1.14 4.945h.507c.563 0 1.046-.084 1.45-.254a2.5 2.5 0 0 0 .98-.707 2.86 2.86 0 0 0 .531-1.023zm14.563-1.305c0 .64-.148 1.215-.442 1.723-.294.508-.717.933-1.27 1.277a6.322 6.322 0 0 1-1.831.742 9.583 9.583 0 0 1-2.23.243h-1.126l-.695 3.007a3.844 3.844 0 0 0-.051.25c-.013.079-.02.138-.02.18 0 .234.097.406.29.516.192.11.57.192 1.132.25l-.133.57H50.04l.133-.57c.13-.006.324-.025.582-.059.258-.034.45-.072.574-.113a.958.958 0 0 0 .465-.305c.107-.135.181-.294.223-.476l1.789-7.75a3.01 3.01 0 0 0 .054-.274c.01-.073.016-.127.016-.164 0-.219-.11-.39-.332-.512-.221-.122-.582-.22-1.082-.293l.133-.57h6.008c1.291 0 2.253.19 2.886.57.633.38.95.967.95 1.758zm-3.266 1.305c.114-.39.172-.818.172-1.281 0-.563-.151-.983-.453-1.262-.302-.279-.795-.418-1.477-.418h-.57l-1.14 4.945h.507c.562 0 1.046-.084 1.45-.254a2.5 2.5 0 0 0 .98-.707 2.86 2.86 0 0 0 .53-1.023zM61.289 12l.133-.57c.15-.006.357-.022.617-.051.26-.029.461-.066.602-.113a.946.946 0 0 0 .464-.309 1.22 1.22 0 0 0 .223-.48l1.79-7.75c.025-.11.043-.201.054-.274.01-.073.016-.127.016-.164 0-.219-.122-.39-.364-.512s-.613-.22-1.113-.293l.133-.57h6.148l-.133.57c-.166.01-.38.036-.64.075s-.456.079-.586.12c-.214.068-.371.174-.473.317a1.36 1.36 0 0 0-.215.48l-1.789 7.758c-.02.089-.038.172-.05.25-.014.079-.02.138-.02.18 0 .26.121.441.363.543.242.102.616.176 1.121.223l-.132.57h-6.149zM83.687.914l-.132.57c-.146.016-.358.043-.637.082a2.07 2.07 0 0 0-.816.309c-.224.14-.416.383-.575.727-.159.343-.316.846-.472 1.507l-1.836 7.954h-1.313L73.117 3.18l-1.265 5.547c-.068.291-.12.565-.157.82a4.547 4.547 0 0 0-.054.61c0 .213.02.378.062.495a.773.773 0 0 0 .18.293c.12.12.33.224.629.313.3.088.522.146.668.172l-.133.57H68.28l.133-.57c.14-.021.363-.058.668-.11.305-.052.566-.146.785-.28.23-.147.422-.385.578-.716.157-.33.31-.834.461-1.511l1.203-5.22c.026-.119.049-.232.067-.34a1.752 1.752 0 0 0-.028-.741 1.002 1.002 0 0 0-.203-.395 1.473 1.473 0 0 0-.539-.41 3.23 3.23 0 0 0-.75-.223l.14-.57h4.095l4.187 7.813 1.04-4.54c.072-.333.125-.605.16-.816.033-.21.05-.407.05-.59 0-.203-.022-.368-.066-.496a.819.819 0 0 0-.192-.316c-.114-.115-.316-.218-.605-.309a5.324 5.324 0 0 0-.668-.176l.133-.57h4.757zm4.227 11.39c-.708 0-1.365-.1-1.969-.3a4.552 4.552 0 0 1-1.578-.887 4.053 4.053 0 0 1-1.058-1.43c-.253-.562-.38-1.195-.38-1.898 0-1.042.184-1.999.551-2.871a6.932 6.932 0 0 1 1.536-2.277 6.88 6.88 0 0 1 2.316-1.489 7.813 7.813 0 0 1 2.91-.535c.63 0 1.257.077 1.88.23.621.154 1.089.32 1.401.497l.579-.43h.68l-.86 4.047h-.688c-.114-1.203-.436-2.108-.964-2.715-.53-.607-1.213-.91-2.051-.91-.667 0-1.26.198-1.781.594a5.03 5.03 0 0 0-1.32 1.539c-.355.614-.63 1.347-.825 2.199A11.245 11.245 0 0 0 86 8.188c0 1.03.202 1.85.605 2.457.404.606 1 .91 1.786.91.427 0 .796-.07 1.109-.211.313-.14.589-.313.828-.516l.492-2.117c.021-.094.038-.181.051-.262.013-.08.02-.144.02-.191 0-.219-.136-.39-.407-.512-.27-.122-.656-.22-1.156-.293l.133-.57h6l-.133.57a4.5 4.5 0 0 0-.562.078 7.234 7.234 0 0 0-.516.117c-.219.068-.378.174-.477.317-.099.143-.169.3-.21.473l-.313 1.351c-.052.23-.095.436-.129.621s-.069.384-.105.598c-.6.344-1.392.646-2.38.906-.986.26-1.894.39-2.722.39zm-72.203 4.61l-.133.57c-.146.016-.358.043-.637.082a2.07 2.07 0 0 0-.816.309c-.224.14-.415.383-.574.727-.16.343-.317.846-.473 1.507l-1.836 7.953H9.93L5.14 19.18l-1.265 5.547c-.068.291-.12.565-.156.82a4.547 4.547 0 0 0-.055.61c0 .213.02.378.063.495a.773.773 0 0 0 .18.293c.119.12.329.224.628.313.3.088.522.146.668.172L5.07 28H.305l.133-.57c.14-.021.363-.058.667-.11.305-.052.567-.146.786-.28.229-.147.421-.385.578-.716.156-.33.31-.834.46-1.512l1.204-5.218c.026-.12.048-.233.066-.34a1.752 1.752 0 0 0-.027-.742 1.002 1.002 0 0 0-.203-.395 1.473 1.473 0 0 0-.54-.41 3.23 3.23 0 0 0-.75-.223l.141-.57h4.094l4.188 7.813 1.039-4.54c.073-.333.126-.605.16-.816a3.7 3.7 0 0 0 .05-.59c0-.203-.022-.368-.066-.496a.819.819 0 0 0-.191-.316c-.115-.115-.317-.218-.606-.309a5.324 5.324 0 0 0-.668-.176l.133-.57h4.758zm10.437 0l-.648 2.828h-.594a3.264 3.264 0 0 0-.527-1.363c-.279-.414-.572-.655-.879-.723a3.144 3.144 0 0 0-.633-.066 25.098 25.098 0 0 0-.687-.012h-1.532l-1 4.336h1.063c.39 0 .697-.043.918-.129a2.31 2.31 0 0 0 .621-.363c.146-.12.316-.335.512-.645.195-.31.334-.574.418-.793h.593l-1.07 4.625h-.594v-.289a3.68 3.68 0 0 0-.074-.722c-.05-.248-.108-.42-.176-.52a.963.963 0 0 0-.539-.394 2.746 2.746 0 0 0-.765-.098h-1.063l-.71 3.086a7.983 7.983 0 0 0-.102.508 2.66 2.66 0 0 0-.047.39c0 .334.11.543.328.63.219.085.622.128 1.21.128.75 0 1.298-.032 1.642-.098.343-.065.601-.165.773-.3.312-.26.687-.66 1.125-1.196.437-.536.734-.932.89-1.187h.57L24.165 28h-10.32l.133-.57a9.03 9.03 0 0 0 .582-.051 3.01 3.01 0 0 0 .574-.106.934.934 0 0 0 .465-.312c.106-.14.18-.302.222-.484l1.79-7.75c.025-.11.044-.201.054-.274.01-.073.016-.127.016-.164 0-.219-.111-.39-.332-.512-.222-.122-.582-.22-1.082-.293l.132-.57h9.75zm19.579 0l-.141.57a2.047 2.047 0 0 0-.516.118 5.325 5.325 0 0 0-.5.21 2.03 2.03 0 0 0-.586.418c-.14.154-.286.359-.437.614a413.65 413.65 0 0 0-2.25 3.86 2322.63 2322.63 0 0 0-3.125 5.421h-1.625l-1-8.188-4.5 8.188h-1.563c-.218-1.953-.42-3.79-.605-5.508a607.03 607.03 0 0 0-.418-3.805c-.037-.276-.095-.48-.176-.613-.08-.133-.22-.27-.418-.41a1.404 1.404 0 0 0-.406-.2 3.268 3.268 0 0 0-.508-.105l.133-.57h5.797l-.14.57a8.495 8.495 0 0 0-.876.133 1.869 1.869 0 0 0-.469.156c-.093.053-.148.111-.164.176a.85.85 0 0 0-.023.2c0 .104.005.225.016.363a128.275 128.275 0 0 0 .27 2.773c.111 1.06.237 2.296.378 3.707l4.367-8.078h1.664l1.008 8.328c.62-1.12 1.195-2.165 1.727-3.137.53-.97.953-1.759 1.265-2.363.193-.37.36-.713.504-1.031.143-.318.215-.523.215-.617 0-.162-.137-.295-.41-.399-.274-.104-.673-.174-1.2-.21l.141-.57h4.57zm2.601 11.383a7.845 7.845 0 0 1-1.855-.227 6.531 6.531 0 0 1-1.637-.617l-.672.547H43.5l.828-4.008H45c.063.39.177.796.344 1.215.166.42.383.793.648 1.121.26.339.591.62.992.844.401.224.86.336 1.375.336.756 0 1.36-.184 1.813-.551.453-.367.68-.85.68-1.45 0-.385-.13-.723-.387-1.015-.258-.291-.673-.541-1.246-.75l-1.059-.379a18.557 18.557 0 0 1-.972-.379c-.61-.255-1.068-.618-1.376-1.09a2.707 2.707 0 0 1-.46-1.503c0-.49.112-.96.336-1.41.223-.451.546-.853.968-1.208.412-.349.92-.628 1.528-.84a6.043 6.043 0 0 1 1.996-.316c.604 0 1.203.087 1.797.262.593.174 1.03.342 1.312.504l.586-.469h.68l-.813 3.781h-.672a7.836 7.836 0 0 0-.293-1.25 3.848 3.848 0 0 0-.527-1.054 2.47 2.47 0 0 0-.816-.723c-.326-.18-.718-.27-1.176-.27-.636 0-1.166.178-1.59.532-.425.354-.637.8-.637 1.336 0 .375.128.703.383.984s.659.526 1.211.734c.323.12.661.244 1.016.371.354.128.692.26 1.015.395.604.25 1.081.59 1.43 1.02.349.43.523.938.523 1.527a3.35 3.35 0 0 1-.382 1.57 3.82 3.82 0 0 1-1.07 1.266 5.314 5.314 0 0 1-1.696.863c-.646.2-1.357.3-2.133.3z"/></svg><svg width="104" height="37" viewBox="-4 -4 104 37" id="text_shopping_news_96x29_outlet" y="37" xmlns="http://www.w3.org/2000/svg"><path fill="#332392" fill-rule="evenodd" d="M5.492 12.297a7.845 7.845 0 0 1-1.855-.227A6.531 6.531 0 0 1 2 11.453L1.328 12H.664l.828-4.008h.672c.063.39.177.796.344 1.215.166.42.383.793.648 1.121.26.339.591.62.992.844.401.224.86.336 1.375.336.756 0 1.36-.184 1.813-.551.453-.367.68-.85.68-1.45 0-.385-.13-.723-.387-1.015-.258-.291-.673-.541-1.246-.75l-1.059-.379a18.557 18.557 0 0 1-.972-.379c-.61-.255-1.068-.618-1.375-1.09a2.707 2.707 0 0 1-.461-1.503c0-.49.112-.96.336-1.41.224-.451.546-.853.968-1.208.412-.349.92-.628 1.528-.84A6.043 6.043 0 0 1 7.344.618c.604 0 1.203.087 1.797.262.593.174 1.03.342 1.312.504l.586-.469h.68l-.813 3.781h-.672a7.836 7.836 0 0 0-.293-1.25 3.848 3.848 0 0 0-.527-1.054 2.47 2.47 0 0 0-.816-.723c-.326-.18-.718-.27-1.176-.27-.636 0-1.165.178-1.59.532-.424.354-.637.8-.637 1.336 0 .375.128.703.383.984s.659.526 1.211.734c.323.12.662.244 1.016.371.354.128.692.26 1.015.395.604.25 1.081.59 1.43 1.02.349.43.523.938.523 1.527a3.35 3.35 0 0 1-.382 1.57 3.82 3.82 0 0 1-1.07 1.266 5.314 5.314 0 0 1-1.696.863c-.646.2-1.357.3-2.133.3zM27.023.914l-.132.57c-.162.01-.365.037-.61.079-.245.041-.43.08-.554.117-.214.067-.372.173-.473.316a1.36 1.36 0 0 0-.215.48l-1.789 7.758c-.02.089-.038.172-.05.25-.014.079-.02.138-.02.18 0 .234.1.408.3.52.201.112.575.194 1.122.246l-.133.57h-5.992l.132-.57a97.7 97.7 0 0 0 .578-.047c.25-.021.43-.052.54-.094.203-.073.359-.177.468-.312.11-.136.185-.297.227-.485l.883-3.883h-4.657l-.828 3.625c-.02.089-.037.172-.05.25-.013.079-.02.138-.02.18 0 .234.096.406.29.516.192.11.559.192 1.1.25l-.132.57h-5.992l.132-.57a9.03 9.03 0 0 0 .582-.051 3.01 3.01 0 0 0 .575-.106.934.934 0 0 0 .465-.312c.106-.14.18-.302.222-.484l1.79-7.75c.025-.11.044-.201.054-.274.01-.073.016-.127.016-.164 0-.219-.111-.39-.332-.512-.222-.122-.582-.22-1.082-.293l.132-.57h5.992l-.132.57c-.162.01-.358.037-.59.079-.232.041-.413.08-.543.117-.219.067-.378.175-.477.324a1.482 1.482 0 0 0-.21.473l-.774 3.367h4.656l.719-3.117c.026-.11.044-.201.055-.274.01-.073.015-.127.015-.164 0-.219-.107-.387-.32-.504-.214-.117-.568-.217-1.063-.3l.133-.57h5.992zm12.008 4.25c0 .938-.176 1.843-.527 2.715a6.87 6.87 0 0 1-1.48 2.277 7.29 7.29 0 0 1-2.297 1.57c-.88.386-1.878.579-2.993.579-1.458 0-2.656-.42-3.593-1.262-.938-.841-1.407-1.941-1.407-3.3 0-.99.19-1.921.57-2.794a7.097 7.097 0 0 1 1.579-2.285 7.205 7.205 0 0 1 2.308-1.508A7.245 7.245 0 0 1 33.984.61c1.47 0 2.677.412 3.625 1.235.948.823 1.422 1.93 1.422 3.32zm-4.086 4.094a9.616 9.616 0 0 0 .79-2.348c.171-.846.257-1.68.257-2.504 0-.953-.182-1.703-.547-2.25-.364-.547-.909-.82-1.633-.82-.635 0-1.204.213-1.707.64-.502.428-.925.982-1.27 1.665a9.504 9.504 0 0 0-.788 2.312 12.32 12.32 0 0 0-.274 2.563c0 .922.183 1.662.547 2.222.365.56.912.84 1.64.84.631 0 1.203-.219 1.716-.656a5.173 5.173 0 0 0 1.27-1.664zm16.196-6.016c0 .64-.148 1.215-.442 1.723-.294.508-.717.933-1.27 1.277a6.322 6.322 0 0 1-1.831.742 9.583 9.583 0 0 1-2.23.243h-1.126l-.695 3.007a3.246 3.246 0 0 0-.05.25c-.014.079-.02.138-.02.18 0 .234.096.406.289.516.192.11.57.192 1.132.25l-.132.57h-6.024l.133-.57c.13-.006.324-.025.582-.059.258-.034.45-.072.574-.113a.958.958 0 0 0 .465-.305c.107-.135.181-.294.223-.476l1.789-7.75a3.01 3.01 0 0 0 .054-.274c.01-.073.016-.127.016-.164 0-.219-.11-.39-.332-.512-.221-.122-.582-.22-1.082-.293l.133-.57h6.008c1.291 0 2.254.19 2.886.57.633.38.95.967.95 1.758zm-3.266 1.305a4.52 4.52 0 0 0 .172-1.281c0-.563-.151-.983-.453-1.262-.302-.279-.795-.418-1.477-.418h-.57l-1.14 4.945h.507c.563 0 1.046-.084 1.45-.254a2.5 2.5 0 0 0 .98-.707 2.86 2.86 0 0 0 .531-1.023zm14.563-1.305c0 .64-.148 1.215-.442 1.723-.294.508-.717.933-1.27 1.277a6.322 6.322 0 0 1-1.831.742 9.583 9.583 0 0 1-2.23.243h-1.126l-.695 3.007a3.844 3.844 0 0 0-.051.25c-.013.079-.02.138-.02.18 0 .234.097.406.29.516.192.11.57.192 1.132.25l-.133.57H50.04l.133-.57c.13-.006.324-.025.582-.059.258-.034.45-.072.574-.113a.958.958 0 0 0 .465-.305c.107-.135.181-.294.223-.476l1.789-7.75a3.01 3.01 0 0 0 .054-.274c.01-.073.016-.127.016-.164 0-.219-.11-.39-.332-.512-.221-.122-.582-.22-1.082-.293l.133-.57h6.008c1.291 0 2.253.19 2.886.57.633.38.95.967.95 1.758zm-3.266 1.305c.114-.39.172-.818.172-1.281 0-.563-.151-.983-.453-1.262-.302-.279-.795-.418-1.477-.418h-.57l-1.14 4.945h.507c.562 0 1.046-.084 1.45-.254a2.5 2.5 0 0 0 .98-.707 2.86 2.86 0 0 0 .53-1.023zM61.289 12l.133-.57c.15-.006.357-.022.617-.051.26-.029.461-.066.602-.113a.946.946 0 0 0 .464-.309 1.22 1.22 0 0 0 .223-.48l1.79-7.75c.025-.11.043-.201.054-.274.01-.073.016-.127.016-.164 0-.219-.122-.39-.364-.512s-.613-.22-1.113-.293l.133-.57h6.148l-.133.57c-.166.01-.38.036-.64.075s-.456.079-.586.12c-.214.068-.371.174-.473.317a1.36 1.36 0 0 0-.215.48l-1.789 7.758c-.02.089-.038.172-.05.25-.014.079-.02.138-.02.18 0 .26.121.441.363.543.242.102.616.176 1.121.223l-.132.57h-6.149zM83.687.914l-.132.57c-.146.016-.358.043-.637.082a2.07 2.07 0 0 0-.816.309c-.224.14-.416.383-.575.727-.159.343-.316.846-.472 1.507l-1.836 7.954h-1.313L73.117 3.18l-1.265 5.547c-.068.291-.12.565-.157.82a4.547 4.547 0 0 0-.054.61c0 .213.02.378.062.495a.773.773 0 0 0 .18.293c.12.12.33.224.629.313.3.088.522.146.668.172l-.133.57H68.28l.133-.57c.14-.021.363-.058.668-.11.305-.052.566-.146.785-.28.23-.147.422-.385.578-.716.157-.33.31-.834.461-1.511l1.203-5.22c.026-.119.049-.232.067-.34a1.752 1.752 0 0 0-.028-.741 1.002 1.002 0 0 0-.203-.395 1.473 1.473 0 0 0-.539-.41 3.23 3.23 0 0 0-.75-.223l.14-.57h4.095l4.187 7.813 1.04-4.54c.072-.333.125-.605.16-.816.033-.21.05-.407.05-.59 0-.203-.022-.368-.066-.496a.819.819 0 0 0-.192-.316c-.114-.115-.316-.218-.605-.309a5.324 5.324 0 0 0-.668-.176l.133-.57h4.757zm4.227 11.39c-.708 0-1.365-.1-1.969-.3a4.552 4.552 0 0 1-1.578-.887 4.053 4.053 0 0 1-1.058-1.43c-.253-.562-.38-1.195-.38-1.898 0-1.042.184-1.999.551-2.871a6.932 6.932 0 0 1 1.536-2.277 6.88 6.88 0 0 1 2.316-1.489 7.813 7.813 0 0 1 2.91-.535c.63 0 1.257.077 1.88.23.621.154 1.089.32 1.401.497l.579-.43h.68l-.86 4.047h-.688c-.114-1.203-.436-2.108-.964-2.715-.53-.607-1.213-.91-2.051-.91-.667 0-1.26.198-1.781.594a5.03 5.03 0 0 0-1.32 1.539c-.355.614-.63 1.347-.825 2.199A11.245 11.245 0 0 0 86 8.188c0 1.03.202 1.85.605 2.457.404.606 1 .91 1.786.91.427 0 .796-.07 1.109-.211.313-.14.589-.313.828-.516l.492-2.117c.021-.094.038-.181.051-.262.013-.08.02-.144.02-.191 0-.219-.136-.39-.407-.512-.27-.122-.656-.22-1.156-.293l.133-.57h6l-.133.57a4.5 4.5 0 0 0-.562.078 7.234 7.234 0 0 0-.516.117c-.219.068-.378.174-.477.317-.099.143-.169.3-.21.473l-.313 1.351c-.052.23-.095.436-.129.621s-.069.384-.105.598c-.6.344-1.392.646-2.38.906-.986.26-1.894.39-2.722.39zm-72.203 4.61l-.133.57c-.146.016-.358.043-.637.082a2.07 2.07 0 0 0-.816.309c-.224.14-.415.383-.574.727-.16.343-.317.846-.473 1.507l-1.836 7.953H9.93L5.14 19.18l-1.265 5.547c-.068.291-.12.565-.156.82a4.547 4.547 0 0 0-.055.61c0 .213.02.378.063.495a.773.773 0 0 0 .18.293c.119.12.329.224.628.313.3.088.522.146.668.172L5.07 28H.305l.133-.57c.14-.021.363-.058.667-.11.305-.052.567-.146.786-.28.229-.147.421-.385.578-.716.156-.33.31-.834.46-1.512l1.204-5.218c.026-.12.048-.233.066-.34a1.752 1.752 0 0 0-.027-.742 1.002 1.002 0 0 0-.203-.395 1.473 1.473 0 0 0-.54-.41 3.23 3.23 0 0 0-.75-.223l.141-.57h4.094l4.188 7.813 1.039-4.54c.073-.333.126-.605.16-.816a3.7 3.7 0 0 0 .05-.59c0-.203-.022-.368-.066-.496a.819.819 0 0 0-.191-.316c-.115-.115-.317-.218-.606-.309a5.324 5.324 0 0 0-.668-.176l.133-.57h4.758zm10.437 0l-.648 2.828h-.594a3.264 3.264 0 0 0-.527-1.363c-.279-.414-.572-.655-.879-.723a3.144 3.144 0 0 0-.633-.066 25.097 25.097 0 0 0-.687-.012h-1.532l-1 4.336h1.063c.39 0 .697-.043.918-.129a2.31 2.31 0 0 0 .621-.363c.146-.12.316-.335.512-.645.195-.31.334-.574.418-.793h.593l-1.07 4.625h-.594v-.289a3.68 3.68 0 0 0-.074-.722c-.05-.248-.108-.42-.176-.52a.963.963 0 0 0-.539-.394 2.746 2.746 0 0 0-.765-.098h-1.063l-.71 3.086a7.983 7.983 0 0 0-.102.508 2.66 2.66 0 0 0-.047.39c0 .334.11.543.328.63.219.085.622.128 1.21.128.75 0 1.298-.032 1.642-.098.343-.065.601-.165.773-.3.312-.26.687-.66 1.125-1.196.437-.536.734-.932.89-1.187h.57L24.165 28h-10.32l.133-.57a9.03 9.03 0 0 0 .582-.051c.257-.029.449-.064.574-.106a.934.934 0 0 0 .465-.312c.106-.14.18-.302.222-.484l1.79-7.75c.025-.11.044-.201.054-.274.01-.073.016-.127.016-.164 0-.219-.111-.39-.332-.512-.222-.122-.582-.22-1.082-.293l.132-.57h9.75zm19.579 0l-.141.57a2.047 2.047 0 0 0-.516.118 5.326 5.326 0 0 0-.5.21 2.03 2.03 0 0 0-.586.418c-.14.154-.286.359-.437.614a413.65 413.65 0 0 0-2.25 3.86 2740.64 2740.64 0 0 0-3.125 5.421h-1.625l-1-8.188-4.5 8.188h-1.563c-.218-1.953-.42-3.79-.605-5.508a607.025 607.025 0 0 0-.418-3.805c-.037-.276-.095-.48-.176-.613-.08-.133-.22-.27-.418-.41a1.404 1.404 0 0 0-.406-.2 3.268 3.268 0 0 0-.508-.105l.133-.57h5.797l-.14.57a8.495 8.495 0 0 0-.876.133 1.869 1.869 0 0 0-.469.156c-.093.053-.148.111-.164.176a.85.85 0 0 0-.023.2c0 .104.005.225.016.363a128.275 128.275 0 0 0 .27 2.773c.111 1.06.237 2.296.378 3.707l4.367-8.078h1.664l1.008 8.328a712.65 712.65 0 0 0 1.727-3.137c.53-.97.953-1.759 1.265-2.363.193-.37.36-.713.504-1.031.143-.318.215-.523.215-.617 0-.162-.137-.295-.41-.399-.274-.104-.673-.174-1.2-.21l.141-.57h4.57zm2.601 11.383a7.845 7.845 0 0 1-1.855-.227 6.531 6.531 0 0 1-1.637-.617l-.672.547H43.5l.828-4.008H45c.063.39.177.796.344 1.215.166.42.383.793.648 1.121.26.339.591.62.992.844.401.224.86.336 1.375.336.756 0 1.36-.184 1.813-.551.453-.367.68-.85.68-1.45 0-.385-.13-.723-.387-1.015-.258-.291-.673-.541-1.246-.75l-1.059-.379a18.557 18.557 0 0 1-.972-.379c-.61-.255-1.068-.618-1.376-1.09a2.707 2.707 0 0 1-.46-1.503c0-.49.112-.96.336-1.41.223-.451.546-.853.968-1.208.412-.349.92-.628 1.528-.84a6.043 6.043 0 0 1 1.996-.316c.604 0 1.203.087 1.797.262.593.174 1.03.342 1.312.504l.586-.469h.68l-.813 3.781h-.672a7.836 7.836 0 0 0-.293-1.25 3.848 3.848 0 0 0-.527-1.054 2.47 2.47 0 0 0-.816-.723c-.326-.18-.718-.27-1.176-.27-.636 0-1.166.178-1.59.532-.425.354-.637.8-.637 1.336 0 .375.128.703.383.984s.659.526 1.211.734c.323.12.661.244 1.016.371.354.128.692.26 1.015.395.604.25 1.081.59 1.43 1.02.349.43.523.938.523 1.527a3.35 3.35 0 0 1-.382 1.57 3.82 3.82 0 0 1-1.07 1.266 5.314 5.314 0 0 1-1.696.863c-.646.2-1.357.3-2.133.3z"/></svg><svg width="66" height="18" viewBox="-4 -4 66 18" id="text_soldout_58x10_white" x="198" y="37" xmlns="http://www.w3.org/2000/svg"><path fill="#FFF" fill-rule="evenodd" d="M1.936 6.393c0 .264.048.488.143.671.095.183.222.332.38.445.157.114.342.198.555.253.213.056.433.083.66.083.154 0 .319-.013.495-.038.176-.026.341-.076.495-.149a1.08 1.08 0 0 0 .385-.303.759.759 0 0 0 .154-.489.689.689 0 0 0-.204-.517 1.614 1.614 0 0 0-.533-.33 5.325 5.325 0 0 0-.748-.231 21.65 21.65 0 0 1-.847-.22 7.52 7.52 0 0 1-.858-.27 2.948 2.948 0 0 1-.748-.412 1.943 1.943 0 0 1-.533-.632C.596 4 .528 3.694.528 3.335c0-.403.086-.753.259-1.05.172-.298.397-.545.676-.743.279-.198.594-.345.946-.44A4.024 4.024 0 0 1 3.465.959c.41 0 .805.046 1.183.138.377.091.713.24 1.006.445.293.205.526.467.698.786.173.32.259.706.259 1.161H4.939a1.389 1.389 0 0 0-.149-.583.972.972 0 0 0-.335-.363 1.418 1.418 0 0 0-.479-.187 2.946 2.946 0 0 0-.588-.055c-.14 0-.279.015-.418.044-.14.03-.266.08-.38.154a.955.955 0 0 0-.28.275.738.738 0 0 0-.11.418c0 .154.03.279.088.374.059.095.174.183.346.264.173.08.411.161.716.242.304.08.702.183 1.193.308.147.03.35.082.61.16.26.077.52.2.776.368.257.169.478.394.665.676.188.283.281.644.281 1.084 0 .36-.07.693-.209 1.001-.14.308-.346.574-.622.798a2.989 2.989 0 0 1-1.022.522 4.836 4.836 0 0 1-1.414.187 4.94 4.94 0 0 1-1.26-.16 3.168 3.168 0 0 1-1.077-.5 2.472 2.472 0 0 1-.743-.869c-.183-.352-.271-.77-.264-1.254h1.672zm7.477-1.287c0 .33.039.65.116.963.077.311.2.592.368.841.17.25.39.45.66.6.272.15.602.225.99.225.39 0 .72-.075.99-.226.272-.15.492-.35.66-.599.17-.25.292-.53.369-.841.077-.312.115-.633.115-.963 0-.345-.038-.678-.115-1.001-.077-.323-.2-.61-.369-.864a1.87 1.87 0 0 0-.66-.605c-.27-.15-.6-.225-.99-.225-.388 0-.718.075-.99.225a1.87 1.87 0 0 0-.66.606c-.168.253-.291.54-.368.863a4.298 4.298 0 0 0-.116 1.001zm-1.727 0c0-.587.088-1.131.264-1.633.176-.503.43-.941.76-1.315a3.47 3.47 0 0 1 1.215-.88 3.967 3.967 0 0 1 1.622-.319c.61 0 1.152.106 1.628.319.477.213.88.506 1.21.88.33.374.583.812.76 1.315.175.502.263 1.046.263 1.633a4.74 4.74 0 0 1-.264 1.6A3.822 3.822 0 0 1 14.385 8c-.33.367-.733.654-1.21.864-.476.209-1.019.313-1.628.313a4.027 4.027 0 0 1-1.622-.313A3.477 3.477 0 0 1 8.709 8a3.822 3.822 0 0 1-.759-1.292 4.744 4.744 0 0 1-.264-1.601zm9.029-3.96h1.727v6.402h3.828V9h-5.555V1.146zm8.38 6.402h1.54c.249 0 .49-.04.725-.121.235-.08.444-.214.627-.402.184-.187.33-.43.44-.731.11-.3.165-.667.165-1.1a4.58 4.58 0 0 0-.115-1.073 2.14 2.14 0 0 0-.38-.819 1.683 1.683 0 0 0-.698-.522c-.29-.122-.647-.182-1.073-.182h-1.232v4.95zm-1.728-6.402h3.388c.506 0 .977.08 1.414.242.436.161.814.403 1.133.726.319.323.568.726.748 1.21.18.484.27 1.052.27 1.705 0 .572-.074 1.1-.22 1.584a3.485 3.485 0 0 1-.666 1.254 3.118 3.118 0 0 1-1.111.83c-.444.202-.966.303-1.568.303h-3.388V1.146zm12.854 3.96c0 .33.039.65.116.963.077.311.2.592.368.841.169.25.389.45.66.6.271.15.601.225.99.225s.719-.075.99-.226c.271-.15.491-.35.66-.599.169-.25.292-.53.369-.841.077-.312.115-.633.115-.963 0-.345-.038-.678-.115-1.001-.077-.323-.2-.61-.369-.864a1.87 1.87 0 0 0-.66-.605c-.271-.15-.601-.225-.99-.225s-.719.075-.99.225a1.87 1.87 0 0 0-.66.606c-.169.253-.291.54-.368.863a4.298 4.298 0 0 0-.116 1.001zm-1.727 0c0-.587.088-1.131.264-1.633.176-.503.43-.941.76-1.315a3.47 3.47 0 0 1 1.215-.88 3.967 3.967 0 0 1 1.622-.319c.609 0 1.151.106 1.628.319.477.213.88.506 1.21.88.33.374.583.812.76 1.315.175.502.263 1.046.263 1.633a4.74 4.74 0 0 1-.264 1.6A3.822 3.822 0 0 1 41.193 8c-.33.367-.733.654-1.21.864-.477.209-1.02.313-1.628.313a4.027 4.027 0 0 1-1.622-.313A3.477 3.477 0 0 1 35.517 8a3.822 3.822 0 0 1-.759-1.292 4.744 4.744 0 0 1-.264-1.601zm15.694.924c0 1.063-.297 1.853-.89 2.37-.595.518-1.416.776-2.465.776-1.063 0-1.886-.257-2.469-.77s-.875-1.305-.875-2.376V1.146h1.727V6.03c0 .213.019.422.055.627.037.205.114.387.231.544.118.158.281.286.49.385.209.1.49.149.841.149.616 0 1.042-.137 1.276-.413.235-.275.352-.705.352-1.292V1.146h1.727V6.03zm3.353-3.432h-2.354V1.146h6.435v1.452h-2.354V9H53.54V2.598z"/></svg><svg width="69" height="19" viewBox="-4 -4 69 19" id="text_soldout_61x11_white" x="73" y="102" xmlns="http://www.w3.org/2000/svg"><path fill="#FFF" fill-rule="evenodd" d="M3.936 6.393c0 .264.048.488.143.671.095.183.222.332.38.446.157.113.342.197.555.253.213.055.433.082.66.082.154 0 .319-.013.495-.038.176-.026.341-.076.495-.149a1.08 1.08 0 0 0 .385-.303.759.759 0 0 0 .154-.489.689.689 0 0 0-.204-.517 1.614 1.614 0 0 0-.533-.33 5.325 5.325 0 0 0-.748-.231 21.65 21.65 0 0 1-.847-.22 7.52 7.52 0 0 1-.858-.27 2.948 2.948 0 0 1-.748-.412 1.943 1.943 0 0 1-.534-.633c-.135-.253-.203-.559-.203-.918 0-.403.086-.753.259-1.05.172-.298.397-.545.676-.743.279-.198.594-.345.946-.44A4.024 4.024 0 0 1 5.465.959c.41 0 .805.046 1.183.138.377.091.713.24 1.006.445.293.205.526.467.698.786.173.32.259.706.259 1.161H6.939a1.389 1.389 0 0 0-.149-.583.972.972 0 0 0-.335-.363 1.418 1.418 0 0 0-.479-.187 2.946 2.946 0 0 0-.588-.055c-.14 0-.279.015-.418.044-.14.03-.266.08-.38.154a.955.955 0 0 0-.28.275.738.738 0 0 0-.11.418c0 .154.03.279.088.374.059.095.174.183.346.264.173.08.411.161.715.242.305.08.703.183 1.194.308.147.03.35.082.61.16.26.077.52.2.776.368.257.169.478.394.665.676.188.283.281.644.281 1.084 0 .36-.07.693-.209 1.001-.14.308-.346.574-.622.798a2.989 2.989 0 0 1-1.023.522 4.836 4.836 0 0 1-1.413.187 4.94 4.94 0 0 1-1.26-.16 3.168 3.168 0 0 1-1.077-.5 2.472 2.472 0 0 1-.743-.869c-.183-.352-.271-.77-.264-1.254h1.672zm7.477-1.287c0 .33.039.65.116.963.077.311.2.592.368.841.17.25.39.45.66.6.272.15.602.225.99.225.39 0 .72-.075.99-.226.272-.15.492-.35.66-.599.17-.25.292-.53.369-.841.077-.312.115-.633.115-.963 0-.345-.038-.678-.115-1.001-.077-.323-.2-.61-.369-.864a1.87 1.87 0 0 0-.66-.605c-.27-.15-.6-.225-.99-.225-.388 0-.718.075-.99.225a1.87 1.87 0 0 0-.66.605 2.674 2.674 0 0 0-.368.864 4.298 4.298 0 0 0-.116 1.001zm-1.727 0c0-.587.088-1.131.264-1.633.176-.503.43-.941.76-1.315a3.47 3.47 0 0 1 1.215-.88 3.967 3.967 0 0 1 1.622-.319c.61 0 1.152.106 1.628.319.477.213.88.506 1.21.88.33.374.583.812.76 1.315.175.502.263 1.046.263 1.633a4.74 4.74 0 0 1-.264 1.6A3.822 3.822 0 0 1 16.385 8c-.33.367-.733.654-1.21.864-.476.209-1.019.313-1.628.313a4.027 4.027 0 0 1-1.622-.313A3.477 3.477 0 0 1 10.709 8a3.822 3.822 0 0 1-.759-1.292 4.744 4.744 0 0 1-.264-1.601zm9.029-3.96h1.727v6.402h3.828V9h-5.555V1.146zm8.38 6.402h1.54c.249 0 .49-.04.725-.121.235-.08.444-.214.627-.401.184-.188.33-.431.44-.732.11-.3.165-.667.165-1.1a4.58 4.58 0 0 0-.115-1.072 2.14 2.14 0 0 0-.38-.82 1.683 1.683 0 0 0-.698-.522c-.29-.122-.647-.182-1.073-.182h-1.232v4.95zm-1.728-6.402h3.388c.506 0 .977.08 1.414.242.436.161.814.403 1.133.726.319.323.568.726.748 1.21.18.484.27 1.052.27 1.705 0 .572-.074 1.1-.22 1.584a3.485 3.485 0 0 1-.666 1.254 3.118 3.118 0 0 1-1.111.83c-.444.202-.966.303-1.568.303h-3.388V1.146zm12.854 3.96c0 .33.039.65.116.963.077.311.2.592.368.841.169.25.389.45.66.6.271.15.601.225.99.225s.719-.075.99-.226c.271-.15.491-.35.66-.599.169-.25.292-.53.369-.841.077-.312.115-.633.115-.963 0-.345-.038-.678-.115-1.001-.077-.323-.2-.61-.369-.864a1.87 1.87 0 0 0-.66-.605c-.271-.15-.601-.225-.99-.225s-.719.075-.99.225a1.87 1.87 0 0 0-.66.605 2.652 2.652 0 0 0-.368.864 4.298 4.298 0 0 0-.116 1.001zm-1.727 0c0-.587.088-1.131.264-1.633.176-.503.43-.941.76-1.315a3.47 3.47 0 0 1 1.215-.88 3.967 3.967 0 0 1 1.622-.319c.609 0 1.151.106 1.628.319.477.213.88.506 1.21.88.33.374.583.812.76 1.315.175.502.263 1.046.263 1.633a4.74 4.74 0 0 1-.264 1.6A3.822 3.822 0 0 1 43.193 8c-.33.367-.733.654-1.21.864-.477.209-1.02.313-1.628.313a4.027 4.027 0 0 1-1.622-.313A3.477 3.477 0 0 1 37.517 8a3.822 3.822 0 0 1-.759-1.292 4.744 4.744 0 0 1-.264-1.601zm15.694.924c0 1.063-.297 1.853-.89 2.37-.595.518-1.416.776-2.465.776-1.063 0-1.886-.257-2.469-.77s-.875-1.305-.875-2.376V1.146h1.727V6.03c0 .213.019.422.055.627.037.205.114.387.231.545.118.157.281.285.49.385.209.099.49.148.841.148.616 0 1.042-.137 1.276-.413.235-.275.352-.705.352-1.292V1.146h1.727V6.03zm3.353-3.432h-2.354V1.146h6.435v1.452h-2.354V9H55.54V2.598z"/></svg><svg width="69" height="37" viewBox="-4 -4 69 37" id="text_store_news_61x29_foreign" x="69" y="139" xmlns="http://www.w3.org/2000/svg"><path fill="#7E0F25" fill-rule="evenodd" d="M5.492 12.297a7.845 7.845 0 0 1-1.855-.227A6.531 6.531 0 0 1 2 11.453L1.328 12H.664l.828-4.008h.672c.063.39.177.796.344 1.215.166.42.383.793.648 1.121.26.339.591.62.992.844.401.224.86.336 1.375.336.756 0 1.36-.184 1.813-.551.453-.367.68-.85.68-1.45 0-.385-.13-.723-.387-1.015-.258-.291-.673-.541-1.246-.75l-1.059-.379a18.557 18.557 0 0 1-.972-.379c-.61-.255-1.068-.618-1.375-1.09a2.707 2.707 0 0 1-.461-1.503c0-.49.112-.96.336-1.41.224-.451.546-.853.968-1.208.412-.349.92-.628 1.528-.84A6.043 6.043 0 0 1 7.344.618c.604 0 1.203.087 1.797.262.593.174 1.03.342 1.312.504l.586-.469h.68l-.813 3.781h-.672a7.836 7.836 0 0 0-.293-1.25 3.848 3.848 0 0 0-.527-1.054 2.47 2.47 0 0 0-.816-.723c-.326-.18-.718-.27-1.176-.27-.636 0-1.165.178-1.59.532-.424.354-.637.8-.637 1.336 0 .375.128.703.383.984s.659.526 1.211.734c.323.12.662.244 1.016.371.354.128.692.26 1.015.395.604.25 1.081.59 1.43 1.02.349.43.523.938.523 1.527a3.35 3.35 0 0 1-.382 1.57 3.82 3.82 0 0 1-1.07 1.266 5.314 5.314 0 0 1-1.696.863c-.646.2-1.357.3-2.133.3zM23.875.914l-.734 3.172h-.602a6.667 6.667 0 0 0-.121-.664 5.206 5.206 0 0 0-.246-.79 3.206 3.206 0 0 0-.356-.671c-.127-.177-.28-.281-.457-.313a9.121 9.121 0 0 0-.597-.054 9.95 9.95 0 0 0-.63-.024h-.39l-1.992 8.617c-.02.089-.038.174-.05.254a1.14 1.14 0 0 0-.02.176.71.71 0 0 0 .074.332.52.52 0 0 0 .277.23c.125.053.308.104.547.153.24.05.438.082.594.098l-.133.57h-6.18l.133-.57c.146-.01.36-.032.64-.063.282-.031.483-.068.602-.11a1.05 1.05 0 0 0 .47-.335 1.3 1.3 0 0 0 .218-.5l2.047-8.852h-.305c-.198 0-.397.007-.598.02-.2.013-.428.032-.683.058-.188.026-.397.138-.63.336a8.283 8.283 0 0 0-.675.649A9.11 9.11 0 0 0 13 4.086h-.602l.735-3.172h10.742zm11.492 4.25c0 .938-.176 1.843-.527 2.715a6.87 6.87 0 0 1-1.48 2.277 7.29 7.29 0 0 1-2.297 1.57c-.88.386-1.878.579-2.993.579-1.458 0-2.656-.42-3.593-1.262-.938-.841-1.407-1.941-1.407-3.3 0-.99.19-1.921.57-2.794a7.097 7.097 0 0 1 1.579-2.285 7.205 7.205 0 0 1 2.308-1.508A7.245 7.245 0 0 1 30.32.61c1.47 0 2.677.412 3.625 1.235.948.823 1.422 1.93 1.422 3.32zm-4.086 4.094a9.616 9.616 0 0 0 .79-2.348c.171-.846.257-1.68.257-2.504 0-.953-.182-1.703-.547-2.25-.364-.547-.909-.82-1.633-.82-.635 0-1.204.213-1.707.64-.502.428-.925.982-1.27 1.665a9.504 9.504 0 0 0-.788 2.312 12.32 12.32 0 0 0-.274 2.563c0 .922.183 1.662.547 2.222.365.56.912.84 1.64.84.631 0 1.203-.219 1.716-.656a5.173 5.173 0 0 0 1.27-1.664zM44.47 3.242c0-.557-.176-.972-.528-1.246-.351-.273-.86-.41-1.527-.41h-.531l-1.086 4.71h.758c.849 0 1.547-.266 2.093-.8.547-.534.82-1.285.82-2.254zm-4.586 6.992a3.844 3.844 0 0 0-.051.25c-.013.079-.02.138-.02.18 0 .234.097.406.29.516.192.11.56.192 1.101.25l-.133.57h-5.992l.133-.57c.13-.006.324-.025.582-.059.258-.034.45-.072.574-.113a.958.958 0 0 0 .465-.305c.107-.135.181-.294.223-.476l1.789-7.75a3.01 3.01 0 0 0 .054-.274c.01-.073.016-.127.016-.164 0-.219-.11-.39-.332-.512-.221-.122-.582-.22-1.082-.293l.133-.57h6.11c1.27 0 2.224.18 2.862.54.638.359.958.903.958 1.632 0 .86-.31 1.58-.93 2.16-.62.58-1.495 1.007-2.625 1.277.213.391.483.877.808 1.457.326.581.705 1.25 1.137 2.004.125.224.288.478.488.762.2.284.413.465.637.543.11.037.26.068.453.094.193.026.331.041.414.047l-.14.57h-4.047a49.784 49.784 0 0 0-1.254-2.691 45.325 45.325 0 0 0-1.3-2.332h-.563l-.758 3.257zM60.14.914l-.649 2.828h-.594a3.264 3.264 0 0 0-.527-1.363c-.279-.414-.572-.655-.879-.723a3.144 3.144 0 0 0-.633-.066 25.098 25.098 0 0 0-.687-.012H54.64l-1 4.336h1.062c.39 0 .697-.043.918-.129a2.31 2.31 0 0 0 .621-.363c.146-.12.317-.335.512-.645s.335-.574.418-.793h.594l-1.07 4.625h-.594V8.32c0-.234-.025-.475-.075-.722-.05-.248-.108-.42-.175-.52a.963.963 0 0 0-.54-.394 2.746 2.746 0 0 0-.765-.098h-1.063l-.71 3.086c-.037.156-.07.325-.102.508a2.66 2.66 0 0 0-.047.39c0 .334.11.543.328.63.219.085.623.128 1.211.128.75 0 1.297-.032 1.64-.098.344-.065.602-.165.774-.3.313-.26.688-.66 1.125-1.196.438-.536.734-.932.89-1.187h.571L58.156 12h-10.32l.133-.57a9.03 9.03 0 0 0 .582-.051 3.01 3.01 0 0 0 .574-.106.934.934 0 0 0 .465-.312c.107-.14.18-.302.222-.484l1.79-7.75a3.01 3.01 0 0 0 .054-.274c.01-.073.016-.127.016-.164 0-.219-.11-.39-.332-.512-.222-.122-.582-.22-1.082-.293l.133-.57h9.75zm-44.43 16l-.133.57c-.146.016-.358.043-.637.082a2.07 2.07 0 0 0-.816.309c-.224.14-.415.383-.574.727-.16.343-.317.846-.473 1.507l-1.836 7.953H9.93L5.14 19.18l-1.265 5.547c-.068.291-.12.565-.156.82a4.547 4.547 0 0 0-.055.61c0 .213.02.378.063.495a.773.773 0 0 0 .18.293c.119.12.329.224.628.313.3.088.522.146.668.172L5.07 28H.305l.133-.57c.14-.021.363-.058.667-.11.305-.052.567-.146.786-.28.229-.147.421-.385.578-.716.156-.33.31-.834.46-1.512l1.204-5.218c.026-.12.048-.233.066-.34a1.752 1.752 0 0 0-.027-.742 1.002 1.002 0 0 0-.203-.395 1.473 1.473 0 0 0-.54-.41 3.23 3.23 0 0 0-.75-.223l.141-.57h4.094l4.188 7.813 1.039-4.54c.073-.333.126-.605.16-.816a3.7 3.7 0 0 0 .05-.59c0-.203-.022-.368-.066-.496a.819.819 0 0 0-.191-.316c-.115-.115-.317-.218-.606-.309a5.324 5.324 0 0 0-.668-.176l.133-.57h4.758zm10.437 0l-.648 2.828h-.594a3.264 3.264 0 0 0-.527-1.363c-.279-.414-.572-.655-.879-.723a3.144 3.144 0 0 0-.633-.066 25.098 25.098 0 0 0-.687-.012h-1.532l-1 4.336h1.063c.39 0 .697-.043.918-.129a2.31 2.31 0 0 0 .621-.363c.146-.12.316-.335.512-.645.195-.31.334-.574.418-.793h.593l-1.07 4.625h-.594v-.289c0-.234-.024-.475-.074-.722-.05-.248-.108-.42-.176-.52a.963.963 0 0 0-.539-.394 2.746 2.746 0 0 0-.765-.098h-1.063l-.71 3.086a7.983 7.983 0 0 0-.102.508 2.66 2.66 0 0 0-.047.39c0 .334.11.543.328.63.219.085.622.128 1.21.128.75 0 1.298-.032 1.642-.098.343-.065.601-.165.773-.3.312-.26.687-.66 1.125-1.196.437-.536.734-.932.89-1.187h.57L24.165 28h-10.32l.133-.57a9.03 9.03 0 0 0 .582-.051 3.01 3.01 0 0 0 .574-.106.934.934 0 0 0 .465-.312c.106-.14.18-.302.222-.484l1.79-7.75c.025-.11.044-.201.054-.274.01-.073.016-.127.016-.164 0-.219-.111-.39-.332-.512-.222-.122-.582-.22-1.082-.293l.132-.57h9.75zm19.579 0l-.141.57a2.047 2.047 0 0 0-.516.118 5.325 5.325 0 0 0-.5.21 2.03 2.03 0 0 0-.586.418c-.14.154-.286.359-.437.614a439.23 439.23 0 0 0-2.25 3.86 2322.63 2322.63 0 0 0-3.125 5.421h-1.625l-1-8.188-4.5 8.188h-1.563c-.218-1.953-.42-3.79-.605-5.508a606.955 606.955 0 0 0-.418-3.805c-.037-.276-.095-.48-.176-.613-.08-.133-.22-.27-.418-.41a1.404 1.404 0 0 0-.406-.2 3.268 3.268 0 0 0-.508-.105l.133-.57h5.797l-.14.57a8.495 8.495 0 0 0-.876.133 1.869 1.869 0 0 0-.469.156c-.093.053-.148.111-.164.176a.85.85 0 0 0-.023.2c0 .104.005.225.016.363a128.275 128.275 0 0 0 .27 2.773c.111 1.06.237 2.296.378 3.707l4.367-8.078h1.664l1.008 8.328c.62-1.12 1.195-2.165 1.727-3.137.53-.97.953-1.759 1.265-2.363.193-.37.36-.713.504-1.031.143-.318.215-.523.215-.617 0-.162-.137-.295-.41-.399-.274-.104-.673-.174-1.2-.21l.141-.57h4.57zm2.601 11.383a7.845 7.845 0 0 1-1.855-.227 6.531 6.531 0 0 1-1.637-.617l-.672.547H43.5l.828-4.008H45c.063.39.177.796.344 1.215.166.42.383.793.648 1.121.26.339.591.62.992.844.401.224.86.336 1.375.336.756 0 1.36-.184 1.813-.551.453-.367.68-.85.68-1.45 0-.385-.13-.723-.387-1.015-.258-.291-.673-.541-1.246-.75l-1.059-.379a18.557 18.557 0 0 1-.972-.379c-.61-.255-1.068-.618-1.376-1.09a2.707 2.707 0 0 1-.46-1.503c0-.49.112-.96.336-1.41.223-.451.546-.853.968-1.208.412-.349.92-.628 1.528-.84a6.043 6.043 0 0 1 1.996-.316c.604 0 1.203.087 1.797.262.593.174 1.03.342 1.312.504l.586-.469h.68l-.813 3.781h-.672a7.836 7.836 0 0 0-.293-1.25 3.848 3.848 0 0 0-.527-1.054 2.47 2.47 0 0 0-.816-.723c-.326-.18-.718-.27-1.176-.27-.636 0-1.166.178-1.59.532-.425.354-.637.8-.637 1.336 0 .375.128.703.383.984s.659.526 1.211.734c.323.12.661.244 1.016.371.354.128.692.26 1.015.395.604.25 1.081.59 1.43 1.02.349.43.523.938.523 1.527a3.35 3.35 0 0 1-.382 1.57 3.82 3.82 0 0 1-1.07 1.266 5.314 5.314 0 0 1-1.696.863c-.646.2-1.357.3-2.133.3z"/></svg><svg width="69" height="37" viewBox="-4 -4 69 37" id="text_store_news_61x29_living" x="198" xmlns="http://www.w3.org/2000/svg"><path fill="#815510" fill-rule="evenodd" d="M5.492 12.297a7.845 7.845 0 0 1-1.855-.227A6.531 6.531 0 0 1 2 11.453L1.328 12H.664l.828-4.008h.672c.063.39.177.796.344 1.215.166.42.383.793.648 1.121.26.339.591.62.992.844.401.224.86.336 1.375.336.756 0 1.36-.184 1.813-.551.453-.367.68-.85.68-1.45 0-.385-.13-.723-.387-1.015-.258-.291-.673-.541-1.246-.75l-1.059-.379a18.557 18.557 0 0 1-.972-.379c-.61-.255-1.068-.618-1.375-1.09a2.707 2.707 0 0 1-.461-1.503c0-.49.112-.96.336-1.41.224-.451.546-.853.968-1.208.412-.349.92-.628 1.528-.84A6.043 6.043 0 0 1 7.344.618c.604 0 1.203.087 1.797.262.593.174 1.03.342 1.312.504l.586-.469h.68l-.813 3.781h-.672a7.836 7.836 0 0 0-.293-1.25 3.848 3.848 0 0 0-.527-1.054 2.47 2.47 0 0 0-.816-.723c-.326-.18-.718-.27-1.176-.27-.636 0-1.165.178-1.59.532-.424.354-.637.8-.637 1.336 0 .375.128.703.383.984s.659.526 1.211.734c.323.12.662.244 1.016.371.354.128.692.26 1.015.395.604.25 1.081.59 1.43 1.02.349.43.523.938.523 1.527a3.35 3.35 0 0 1-.382 1.57 3.82 3.82 0 0 1-1.07 1.266 5.314 5.314 0 0 1-1.696.863c-.646.2-1.357.3-2.133.3zM23.875.914l-.734 3.172h-.602a6.667 6.667 0 0 0-.121-.664 5.206 5.206 0 0 0-.246-.79 3.206 3.206 0 0 0-.356-.671c-.127-.177-.28-.281-.457-.313a9.121 9.121 0 0 0-.597-.054 9.95 9.95 0 0 0-.63-.024h-.39l-1.992 8.617c-.02.089-.038.174-.05.254a1.14 1.14 0 0 0-.02.176.71.71 0 0 0 .074.332.52.52 0 0 0 .277.23c.125.053.308.104.547.153.24.05.438.082.594.098l-.133.57h-6.18l.133-.57c.146-.01.36-.032.64-.063.282-.031.483-.068.602-.11a1.05 1.05 0 0 0 .47-.335 1.3 1.3 0 0 0 .218-.5l2.047-8.852h-.305c-.198 0-.397.007-.598.02-.2.013-.428.032-.683.058-.188.026-.397.138-.63.336a8.283 8.283 0 0 0-.675.649A9.11 9.11 0 0 0 13 4.086h-.602l.735-3.172h10.742zm11.492 4.25c0 .938-.176 1.843-.527 2.715a6.87 6.87 0 0 1-1.48 2.277 7.29 7.29 0 0 1-2.297 1.57c-.88.386-1.878.579-2.993.579-1.458 0-2.656-.42-3.593-1.262-.938-.841-1.407-1.941-1.407-3.3 0-.99.19-1.921.57-2.794a7.097 7.097 0 0 1 1.579-2.285 7.205 7.205 0 0 1 2.308-1.508A7.245 7.245 0 0 1 30.32.61c1.47 0 2.677.412 3.625 1.235.948.823 1.422 1.93 1.422 3.32zm-4.086 4.094a9.616 9.616 0 0 0 .79-2.348c.171-.846.257-1.68.257-2.504 0-.953-.182-1.703-.547-2.25-.364-.547-.909-.82-1.633-.82-.635 0-1.204.213-1.707.64-.502.428-.925.982-1.27 1.665a9.504 9.504 0 0 0-.788 2.312 12.32 12.32 0 0 0-.274 2.563c0 .922.183 1.662.547 2.222.365.56.912.84 1.64.84.631 0 1.203-.219 1.716-.656a5.173 5.173 0 0 0 1.27-1.664zM44.47 3.242c0-.557-.176-.972-.528-1.246-.351-.273-.86-.41-1.527-.41h-.531l-1.086 4.71h.758c.849 0 1.547-.266 2.093-.8.547-.534.82-1.285.82-2.254zm-4.586 6.992a3.844 3.844 0 0 0-.051.25c-.013.079-.02.138-.02.18 0 .234.097.406.29.516.192.11.56.192 1.101.25l-.133.57h-5.992l.133-.57c.13-.006.324-.025.582-.059.258-.034.45-.072.574-.113a.958.958 0 0 0 .465-.305c.107-.135.181-.294.223-.476l1.789-7.75a3.01 3.01 0 0 0 .054-.274c.01-.073.016-.127.016-.164 0-.219-.11-.39-.332-.512-.221-.122-.582-.22-1.082-.293l.133-.57h6.11c1.27 0 2.224.18 2.862.54.638.359.958.903.958 1.632 0 .86-.31 1.58-.93 2.16-.62.58-1.495 1.007-2.625 1.277.213.391.483.877.808 1.457.326.581.705 1.25 1.137 2.004.125.224.288.478.488.762.2.284.413.465.637.543.11.037.26.068.453.094.193.026.331.041.414.047l-.14.57h-4.047a49.784 49.784 0 0 0-1.254-2.691 45.325 45.325 0 0 0-1.3-2.332h-.563l-.758 3.257zM60.14.914l-.649 2.828h-.594a3.264 3.264 0 0 0-.527-1.363c-.279-.414-.572-.655-.879-.723a3.144 3.144 0 0 0-.633-.066 25.098 25.098 0 0 0-.687-.012H54.64l-1 4.336h1.062c.39 0 .697-.043.918-.129a2.31 2.31 0 0 0 .621-.363c.146-.12.317-.335.512-.645s.335-.574.418-.793h.594l-1.07 4.625h-.594V8.32c0-.234-.025-.475-.075-.722-.05-.248-.108-.42-.175-.52a.963.963 0 0 0-.54-.394 2.746 2.746 0 0 0-.765-.098h-1.063l-.71 3.086c-.037.156-.07.325-.102.508a2.66 2.66 0 0 0-.047.39c0 .334.11.543.328.63.219.085.623.128 1.211.128.75 0 1.297-.032 1.64-.098.344-.065.602-.165.774-.3.313-.26.688-.66 1.125-1.196.438-.536.734-.932.89-1.187h.571L58.156 12h-10.32l.133-.57a9.03 9.03 0 0 0 .582-.051 3.01 3.01 0 0 0 .574-.106.934.934 0 0 0 .465-.312c.107-.14.18-.302.222-.484l1.79-7.75a3.01 3.01 0 0 0 .054-.274c.01-.073.016-.127.016-.164 0-.219-.11-.39-.332-.512-.222-.122-.582-.22-1.082-.293l.133-.57h9.75zm-44.43 16l-.133.57c-.146.016-.358.043-.637.082a2.07 2.07 0 0 0-.816.309c-.224.14-.415.383-.574.727-.16.343-.317.846-.473 1.507l-1.836 7.953H9.93L5.14 19.18l-1.265 5.547c-.068.291-.12.565-.156.82a4.547 4.547 0 0 0-.055.61c0 .213.02.378.063.495a.773.773 0 0 0 .18.293c.119.12.329.224.628.313.3.088.522.146.668.172L5.07 28H.305l.133-.57c.14-.021.363-.058.667-.11.305-.052.567-.146.786-.28.229-.147.421-.385.578-.716.156-.33.31-.834.46-1.512l1.204-5.218c.026-.12.048-.233.066-.34a1.752 1.752 0 0 0-.027-.742 1.002 1.002 0 0 0-.203-.395 1.473 1.473 0 0 0-.54-.41 3.23 3.23 0 0 0-.75-.223l.141-.57h4.094l4.188 7.813 1.039-4.54c.073-.333.126-.605.16-.816a3.7 3.7 0 0 0 .05-.59c0-.203-.022-.368-.066-.496a.819.819 0 0 0-.191-.316c-.115-.115-.317-.218-.606-.309a5.324 5.324 0 0 0-.668-.176l.133-.57h4.758zm10.437 0l-.648 2.828h-.594a3.264 3.264 0 0 0-.527-1.363c-.279-.414-.572-.655-.879-.723a3.144 3.144 0 0 0-.633-.066 25.098 25.098 0 0 0-.687-.012h-1.532l-1 4.336h1.063c.39 0 .697-.043.918-.129a2.31 2.31 0 0 0 .621-.363c.146-.12.316-.335.512-.645.195-.31.334-.574.418-.793h.593l-1.07 4.625h-.594v-.289c0-.234-.024-.475-.074-.722-.05-.248-.108-.42-.176-.52a.963.963 0 0 0-.539-.394 2.746 2.746 0 0 0-.765-.098h-1.063l-.71 3.086a7.983 7.983 0 0 0-.102.508 2.66 2.66 0 0 0-.047.39c0 .334.11.543.328.63.219.085.622.128 1.21.128.75 0 1.298-.032 1.642-.098.343-.065.601-.165.773-.3.312-.26.687-.66 1.125-1.196.437-.536.734-.932.89-1.187h.57L24.165 28h-10.32l.133-.57a9.03 9.03 0 0 0 .582-.051 3.01 3.01 0 0 0 .574-.106.934.934 0 0 0 .465-.312c.106-.14.18-.302.222-.484l1.79-7.75c.025-.11.044-.201.054-.274.01-.073.016-.127.016-.164 0-.219-.111-.39-.332-.512-.222-.122-.582-.22-1.082-.293l.132-.57h9.75zm19.579 0l-.141.57a2.047 2.047 0 0 0-.516.118 5.325 5.325 0 0 0-.5.21 2.03 2.03 0 0 0-.586.418c-.14.154-.286.359-.437.614a439.23 439.23 0 0 0-2.25 3.86 2322.63 2322.63 0 0 0-3.125 5.421h-1.625l-1-8.188-4.5 8.188h-1.563c-.218-1.953-.42-3.79-.605-5.508a606.955 606.955 0 0 0-.418-3.805c-.037-.276-.095-.48-.176-.613-.08-.133-.22-.27-.418-.41a1.404 1.404 0 0 0-.406-.2 3.268 3.268 0 0 0-.508-.105l.133-.57h5.797l-.14.57a8.495 8.495 0 0 0-.876.133 1.869 1.869 0 0 0-.469.156c-.093.053-.148.111-.164.176a.85.85 0 0 0-.023.2c0 .104.005.225.016.363a128.275 128.275 0 0 0 .27 2.773c.111 1.06.237 2.296.378 3.707l4.367-8.078h1.664l1.008 8.328c.62-1.12 1.195-2.165 1.727-3.137.53-.97.953-1.759 1.265-2.363.193-.37.36-.713.504-1.031.143-.318.215-.523.215-.617 0-.162-.137-.295-.41-.399-.274-.104-.673-.174-1.2-.21l.141-.57h4.57zm2.601 11.383a7.845 7.845 0 0 1-1.855-.227 6.531 6.531 0 0 1-1.637-.617l-.672.547H43.5l.828-4.008H45c.063.39.177.796.344 1.215.166.42.383.793.648 1.121.26.339.591.62.992.844.401.224.86.336 1.375.336.756 0 1.36-.184 1.813-.551.453-.367.68-.85.68-1.45 0-.385-.13-.723-.387-1.015-.258-.291-.673-.541-1.246-.75l-1.059-.379a18.557 18.557 0 0 1-.972-.379c-.61-.255-1.068-.618-1.376-1.09a2.707 2.707 0 0 1-.46-1.503c0-.49.112-.96.336-1.41.223-.451.546-.853.968-1.208.412-.349.92-.628 1.528-.84a6.043 6.043 0 0 1 1.996-.316c.604 0 1.203.087 1.797.262.593.174 1.03.342 1.312.504l.586-.469h.68l-.813 3.781h-.672a7.836 7.836 0 0 0-.293-1.25 3.848 3.848 0 0 0-.527-1.054 2.47 2.47 0 0 0-.816-.723c-.326-.18-.718-.27-1.176-.27-.636 0-1.166.178-1.59.532-.425.354-.637.8-.637 1.336 0 .375.128.703.383.984s.659.526 1.211.734c.323.12.661.244 1.016.371.354.128.692.26 1.015.395.604.25 1.081.59 1.43 1.02.349.43.523.938.523 1.527a3.35 3.35 0 0 1-.382 1.57 3.82 3.82 0 0 1-1.07 1.266 5.314 5.314 0 0 1-1.696.863c-.646.2-1.357.3-2.133.3z"/></svg><svg width="69" height="37" viewBox="-4 -4 69 37" id="text_store_news_61x29_style" y="139" xmlns="http://www.w3.org/2000/svg"><path fill="#7A2394" fill-rule="evenodd" d="M5.492 12.297a7.845 7.845 0 0 1-1.855-.227A6.531 6.531 0 0 1 2 11.453L1.328 12H.664l.828-4.008h.672c.063.39.177.796.344 1.215.166.42.383.793.648 1.121.26.339.591.62.992.844.401.224.86.336 1.375.336.756 0 1.36-.184 1.813-.551.453-.367.68-.85.68-1.45 0-.385-.13-.723-.387-1.015-.258-.291-.673-.541-1.246-.75l-1.059-.379a18.557 18.557 0 0 1-.972-.379c-.61-.255-1.068-.618-1.375-1.09a2.707 2.707 0 0 1-.461-1.503c0-.49.112-.96.336-1.41.224-.451.546-.853.968-1.208.412-.349.92-.628 1.528-.84A6.043 6.043 0 0 1 7.344.618c.604 0 1.203.087 1.797.262.593.174 1.03.342 1.312.504l.586-.469h.68l-.813 3.781h-.672a7.836 7.836 0 0 0-.293-1.25 3.848 3.848 0 0 0-.527-1.054 2.47 2.47 0 0 0-.816-.723c-.326-.18-.718-.27-1.176-.27-.636 0-1.165.178-1.59.532-.424.354-.637.8-.637 1.336 0 .375.128.703.383.984s.659.526 1.211.734c.323.12.662.244 1.016.371.354.128.692.26 1.015.395.604.25 1.081.59 1.43 1.02.349.43.523.938.523 1.527a3.35 3.35 0 0 1-.382 1.57 3.82 3.82 0 0 1-1.07 1.266 5.314 5.314 0 0 1-1.696.863c-.646.2-1.357.3-2.133.3zM23.875.914l-.734 3.172h-.602a6.667 6.667 0 0 0-.121-.664 5.206 5.206 0 0 0-.246-.79 3.206 3.206 0 0 0-.356-.671c-.127-.177-.28-.281-.457-.313a9.121 9.121 0 0 0-.597-.054 9.95 9.95 0 0 0-.63-.024h-.39l-1.992 8.617c-.02.089-.038.174-.05.254a1.14 1.14 0 0 0-.02.176.71.71 0 0 0 .074.332.52.52 0 0 0 .277.23c.125.053.308.104.547.153.24.05.438.082.594.098l-.133.57h-6.18l.133-.57c.146-.01.36-.032.64-.063.282-.031.483-.068.602-.11a1.05 1.05 0 0 0 .47-.335 1.3 1.3 0 0 0 .218-.5l2.047-8.852h-.305c-.198 0-.397.007-.598.02-.2.013-.428.032-.683.058-.188.026-.397.138-.63.336a8.283 8.283 0 0 0-.675.649A9.11 9.11 0 0 0 13 4.086h-.602l.735-3.172h10.742zm11.492 4.25c0 .938-.176 1.843-.527 2.715a6.87 6.87 0 0 1-1.48 2.277 7.29 7.29 0 0 1-2.297 1.57c-.88.386-1.878.579-2.993.579-1.458 0-2.656-.42-3.593-1.262-.938-.841-1.407-1.941-1.407-3.3 0-.99.19-1.921.57-2.794a7.097 7.097 0 0 1 1.579-2.285 7.205 7.205 0 0 1 2.308-1.508A7.245 7.245 0 0 1 30.32.61c1.47 0 2.677.412 3.625 1.235.948.823 1.422 1.93 1.422 3.32zm-4.086 4.094a9.616 9.616 0 0 0 .79-2.348c.171-.846.257-1.68.257-2.504 0-.953-.182-1.703-.547-2.25-.364-.547-.909-.82-1.633-.82-.635 0-1.204.213-1.707.64-.502.428-.925.982-1.27 1.665a9.504 9.504 0 0 0-.788 2.312 12.32 12.32 0 0 0-.274 2.563c0 .922.183 1.662.547 2.222.365.56.912.84 1.64.84.631 0 1.203-.219 1.716-.656a5.173 5.173 0 0 0 1.27-1.664zM44.47 3.242c0-.557-.176-.972-.528-1.246-.351-.273-.86-.41-1.527-.41h-.531l-1.086 4.71h.758c.849 0 1.547-.266 2.093-.8.547-.534.82-1.285.82-2.254zm-4.586 6.992a3.844 3.844 0 0 0-.051.25c-.013.079-.02.138-.02.18 0 .234.097.406.29.516.192.11.56.192 1.101.25l-.133.57h-5.992l.133-.57c.13-.006.324-.025.582-.059.258-.034.45-.072.574-.113a.958.958 0 0 0 .465-.305c.107-.135.181-.294.223-.476l1.789-7.75a3.01 3.01 0 0 0 .054-.274c.01-.073.016-.127.016-.164 0-.219-.11-.39-.332-.512-.221-.122-.582-.22-1.082-.293l.133-.57h6.11c1.27 0 2.224.18 2.862.54.638.359.958.903.958 1.632 0 .86-.31 1.58-.93 2.16-.62.58-1.495 1.007-2.625 1.277.213.391.483.877.808 1.457.326.581.705 1.25 1.137 2.004.125.224.288.478.488.762.2.284.413.465.637.543.11.037.26.068.453.094.193.026.331.041.414.047l-.14.57h-4.047a49.784 49.784 0 0 0-1.254-2.691 45.325 45.325 0 0 0-1.3-2.332h-.563l-.758 3.257zM60.14.914l-.649 2.828h-.594a3.264 3.264 0 0 0-.527-1.363c-.279-.414-.572-.655-.879-.723a3.144 3.144 0 0 0-.633-.066 25.098 25.098 0 0 0-.687-.012H54.64l-1 4.336h1.062c.39 0 .697-.043.918-.129a2.31 2.31 0 0 0 .621-.363c.146-.12.317-.335.512-.645s.335-.574.418-.793h.594l-1.07 4.625h-.594V8.32c0-.234-.025-.475-.075-.722-.05-.248-.108-.42-.175-.52a.963.963 0 0 0-.54-.394 2.746 2.746 0 0 0-.765-.098h-1.063l-.71 3.086c-.037.156-.07.325-.102.508a2.66 2.66 0 0 0-.047.39c0 .334.11.543.328.63.219.085.623.128 1.211.128.75 0 1.297-.032 1.64-.098.344-.065.602-.165.774-.3.313-.26.688-.66 1.125-1.196.438-.536.734-.932.89-1.187h.571L58.156 12h-10.32l.133-.57a9.03 9.03 0 0 0 .582-.051 3.01 3.01 0 0 0 .574-.106.934.934 0 0 0 .465-.312c.107-.14.18-.302.222-.484l1.79-7.75a3.01 3.01 0 0 0 .054-.274c.01-.073.016-.127.016-.164 0-.219-.11-.39-.332-.512-.222-.122-.582-.22-1.082-.293l.133-.57h9.75zm-44.43 16l-.133.57c-.146.016-.358.043-.637.082a2.07 2.07 0 0 0-.816.309c-.224.14-.415.383-.574.727-.16.343-.317.846-.473 1.507l-1.836 7.953H9.93L5.14 19.18l-1.265 5.547c-.068.291-.12.565-.156.82a4.547 4.547 0 0 0-.055.61c0 .213.02.378.063.495a.773.773 0 0 0 .18.293c.119.12.329.224.628.313.3.088.522.146.668.172L5.07 28H.305l.133-.57c.14-.021.363-.058.667-.11.305-.052.567-.146.786-.28.229-.147.421-.385.578-.716.156-.33.31-.834.46-1.512l1.204-5.218c.026-.12.048-.233.066-.34a1.752 1.752 0 0 0-.027-.742 1.002 1.002 0 0 0-.203-.395 1.473 1.473 0 0 0-.54-.41 3.23 3.23 0 0 0-.75-.223l.141-.57h4.094l4.188 7.813 1.039-4.54c.073-.333.126-.605.16-.816a3.7 3.7 0 0 0 .05-.59c0-.203-.022-.368-.066-.496a.819.819 0 0 0-.191-.316c-.115-.115-.317-.218-.606-.309a5.324 5.324 0 0 0-.668-.176l.133-.57h4.758zm10.437 0l-.648 2.828h-.594a3.264 3.264 0 0 0-.527-1.363c-.279-.414-.572-.655-.879-.723a3.144 3.144 0 0 0-.633-.066 25.098 25.098 0 0 0-.687-.012h-1.532l-1 4.336h1.063c.39 0 .697-.043.918-.129a2.31 2.31 0 0 0 .621-.363c.146-.12.316-.335.512-.645.195-.31.334-.574.418-.793h.593l-1.07 4.625h-.594v-.289c0-.234-.024-.475-.074-.722-.05-.248-.108-.42-.176-.52a.963.963 0 0 0-.539-.394 2.746 2.746 0 0 0-.765-.098h-1.063l-.71 3.086a7.983 7.983 0 0 0-.102.508 2.66 2.66 0 0 0-.047.39c0 .334.11.543.328.63.219.085.622.128 1.21.128.75 0 1.298-.032 1.642-.098.343-.065.601-.165.773-.3.312-.26.687-.66 1.125-1.196.437-.536.734-.932.89-1.187h.57L24.165 28h-10.32l.133-.57a9.03 9.03 0 0 0 .582-.051 3.01 3.01 0 0 0 .574-.106.934.934 0 0 0 .465-.312c.106-.14.18-.302.222-.484l1.79-7.75c.025-.11.044-.201.054-.274.01-.073.016-.127.016-.164 0-.219-.111-.39-.332-.512-.222-.122-.582-.22-1.082-.293l.132-.57h9.75zm19.579 0l-.141.57a2.047 2.047 0 0 0-.516.118 5.325 5.325 0 0 0-.5.21 2.03 2.03 0 0 0-.586.418c-.14.154-.286.359-.437.614a439.23 439.23 0 0 0-2.25 3.86 2322.63 2322.63 0 0 0-3.125 5.421h-1.625l-1-8.188-4.5 8.188h-1.563c-.218-1.953-.42-3.79-.605-5.508a606.955 606.955 0 0 0-.418-3.805c-.037-.276-.095-.48-.176-.613-.08-.133-.22-.27-.418-.41a1.404 1.404 0 0 0-.406-.2 3.268 3.268 0 0 0-.508-.105l.133-.57h5.797l-.14.57a8.495 8.495 0 0 0-.876.133 1.869 1.869 0 0 0-.469.156c-.093.053-.148.111-.164.176a.85.85 0 0 0-.023.2c0 .104.005.225.016.363a128.275 128.275 0 0 0 .27 2.773c.111 1.06.237 2.296.378 3.707l4.367-8.078h1.664l1.008 8.328c.62-1.12 1.195-2.165 1.727-3.137.53-.97.953-1.759 1.265-2.363.193-.37.36-.713.504-1.031.143-.318.215-.523.215-.617 0-.162-.137-.295-.41-.399-.274-.104-.673-.174-1.2-.21l.141-.57h4.57zm2.601 11.383a7.845 7.845 0 0 1-1.855-.227 6.531 6.531 0 0 1-1.637-.617l-.672.547H43.5l.828-4.008H45c.063.39.177.796.344 1.215.166.42.383.793.648 1.121.26.339.591.62.992.844.401.224.86.336 1.375.336.756 0 1.36-.184 1.813-.551.453-.367.68-.85.68-1.45 0-.385-.13-.723-.387-1.015-.258-.291-.673-.541-1.246-.75l-1.059-.379a18.557 18.557 0 0 1-.972-.379c-.61-.255-1.068-.618-1.376-1.09a2.707 2.707 0 0 1-.46-1.503c0-.49.112-.96.336-1.41.223-.451.546-.853.968-1.208.412-.349.92-.628 1.528-.84a6.043 6.043 0 0 1 1.996-.316c.604 0 1.203.087 1.797.262.593.174 1.03.342 1.312.504l.586-.469h.68l-.813 3.781h-.672a7.836 7.836 0 0 0-.293-1.25 3.848 3.848 0 0 0-.527-1.054 2.47 2.47 0 0 0-.816-.723c-.326-.18-.718-.27-1.176-.27-.636 0-1.166.178-1.59.532-.425.354-.637.8-.637 1.336 0 .375.128.703.383.984s.659.526 1.211.734c.323.12.661.244 1.016.371.354.128.692.26 1.015.395.604.25 1.081.59 1.43 1.02.349.43.523.938.523 1.527a3.35 3.35 0 0 1-.382 1.57 3.82 3.82 0 0 1-1.07 1.266 5.314 5.314 0 0 1-1.696.863c-.646.2-1.357.3-2.133.3z"/></svg><svg width="45" height="27" viewBox="-4 -4 45 27" id="text_tag_37x19_black" x="198" y="96" xmlns="http://www.w3.org/2000/svg"><path fill="#25262D" fill-rule="evenodd" d="M13.76.835l-.872 3.767h-.714a7.918 7.918 0 0 0-.144-.789 6.181 6.181 0 0 0-.292-.937 3.807 3.807 0 0 0-.422-.797c-.152-.21-.333-.334-.543-.371a10.831 10.831 0 0 0-.71-.065 11.817 11.817 0 0 0-.747-.028h-.463L6.487 11.848a4.329 4.329 0 0 0-.06.301 1.482 1.482 0 0 0-.024.209c0 .148.03.28.088.394.06.115.169.206.33.274.148.062.365.122.65.18.284.06.519.098.704.117L8.018 14H.679l.158-.677c.173-.013.427-.037.76-.074.335-.038.573-.08.715-.13.247-.1.433-.232.557-.4.123-.166.21-.364.26-.593l2.43-10.511h-.362c-.235 0-.471.007-.71.023a22.36 22.36 0 0 0-.811.07c-.223.03-.472.163-.747.398a9.836 9.836 0 0 0-.803.77 11.4 11.4 0 0 0-.765.942c-.2.282-.373.543-.515.784H.132L1.004.835H13.76zm5.288 12.005h-.074a21.27 21.27 0 0 1-.617.51c-.195.155-.44.31-.737.464-.26.137-.534.25-.821.34a3.21 3.21 0 0 1-.951.134c-1.077 0-1.887-.317-2.431-.951-.544-.634-.816-1.502-.816-2.603 0-.847.151-1.642.454-2.384a6.652 6.652 0 0 1 1.216-1.957 5.797 5.797 0 0 1 1.8-1.322 5.016 5.016 0 0 1 2.17-.488c.557 0 1.044.065 1.461.195.418.13.76.306 1.026.53l2.848-.585.13.148-1.364 5.706c-.05.191-.102.431-.158.719a3.757 3.757 0 0 0-.083.654c0 .352.08.595.24.728.162.133.44.2.836.2.173 0 .382-.035.626-.103a4.4 4.4 0 0 0 .515-.167l-.204.835c-.613.242-1.103.426-1.47.552-.369.127-.794.19-1.276.19-.637 0-1.146-.125-1.526-.375a1.976 1.976 0 0 1-.794-.97zm1.104-5.882c0-.136-.018-.296-.055-.482a1.212 1.212 0 0 0-.195-.473 1.07 1.07 0 0 0-.436-.367 1.58 1.58 0 0 0-.668-.125c-.408 0-.784.147-1.127.44-.344.295-.648.686-.914 1.174a6.766 6.766 0 0 0-.612 1.684 8.658 8.658 0 0 0-.223 1.962c0 .304.023.585.07.845.046.26.122.48.227.658.111.192.261.34.45.446.188.105.425.157.71.157.29 0 .57-.085.839-.255.27-.17.518-.379.747-.626l1.187-5.038zM31.5 13.026h-.075a10.24 10.24 0 0 1-.538.399 4.019 4.019 0 0 1-.658.37 5.19 5.19 0 0 1-.798.312 3.51 3.51 0 0 1-.937.106c-1.077 0-1.904-.315-2.482-.946-.578-.63-.867-1.497-.867-2.598 0-.835.148-1.618.445-2.351a6.548 6.548 0 0 1 1.206-1.944 5.603 5.603 0 0 1 1.777-1.308 5.026 5.026 0 0 1 2.166-.483c.556 0 1.048.06 1.475.177.427.117.795.3 1.104.547l2.83-.584.13.148-1.578 7.543c-.247 1.125-.59 2.055-1.03 2.787-.439.733-.949 1.316-1.53 1.75a5.456 5.456 0 0 1-1.86.913 7.97 7.97 0 0 1-2.037.255c-.76 0-1.38-.057-1.86-.171-.48-.115-.846-.262-1.1-.441-.247-.173-.415-.367-.505-.58a1.61 1.61 0 0 1-.134-.626c0-.353.125-.67.375-.951.25-.282.599-.422 1.044-.422.334 0 .632.09.895.269.263.18.494.396.691.65.18.228.347.492.501.792.155.3.273.543.353.729.284-.05.567-.13.849-.242.281-.11.552-.321.812-.63.247-.297.484-.709.71-1.234.225-.526.434-1.271.626-2.236zm1.243-6.077c0-.154-.02-.314-.06-.478-.04-.163-.12-.32-.237-.468a1.28 1.28 0 0 0-.436-.367c-.173-.09-.408-.134-.705-.134-.402 0-.773.144-1.114.431-.34.288-.64.673-.9 1.155a6.867 6.867 0 0 0-.602 1.666 8.578 8.578 0 0 0-.223 1.962 4 4 0 0 0 .079.82c.052.251.143.476.273.673.13.198.299.347.506.446.207.099.44.148.7.148.303 0 .614-.093.933-.278a3.22 3.22 0 0 0 .765-.594l1.02-4.982z"/></svg></svg>