<?xml version="1.0" encoding="utf-8"?><svg width="291" height="282" viewBox="0 0 291 282" xmlns="http://www.w3.org/2000/svg" xmlns:xlink="http://www.w3.org/1999/xlink"><svg width="19" height="14" viewBox="-4 -4 19 14" id="icon_arrow_down_11x6" x="268" y="60" xmlns="http://www.w3.org/2000/svg"><path fill="#AAA" fill-rule="evenodd" d="M10.255 0L5.498 4.644.747.005 0 .633 5.498 6 11 .628z"/></svg><svg width="48" height="88" viewBox="-4 -4 48 88" id="icon_arrow_left_40x80" xmlns="http://www.w3.org/2000/svg"><path fill="#fff" fill-rule="evenodd" d="M37.03 0L0 40l37.047 40 2.935-2.709L5.468 39.965 40 2.672z"/></svg><svg width="48" height="88" viewBox="-4 -4 48 88" id="icon_arrow_right_40x80" x="48" xmlns="http://www.w3.org/2000/svg"><path fill="#fff" fill-rule="evenodd" d="M2.97 0L40 40 2.953 80 .018 77.291l34.514-37.326L0 2.672z"/></svg><svg width="19" height="14" viewBox="-4 -4 19 14" id="icon_arrow_up_11x6" x="268" y="46" xmlns="http://www.w3.org/2000/svg"><path fill="#AAA" fill-rule="evenodd" d="M10.255 6L5.498 1.356.747 5.995 0 5.367 5.498 0 11 5.372z"/></svg><svg width="34" height="34" viewBox="-4 -4 34 34" id="icon_bad_26x26" x="68" y="189" xmlns="http://www.w3.org/2000/svg"><path fill="#444" fill-rule="evenodd" d="M13 0c7.18 0 13 5.82 13 13s-5.82 13-13 13S0 20.18 0 13 5.82 0 13 0z"/><path fill="#FFF" fill-rule="evenodd" d="M13 5.909A7.099 7.099 0 0 0 5.909 13 7.099 7.099 0 0 0 13 20.091 7.099 7.099 0 0 0 20.091 13 7.099 7.099 0 0 0 13 5.909m2.127 4.95a.71.71 0 1 1 0 1.419.71.71 0 0 1 0-1.419m-4.254 0a.71.71 0 1 1 0 1.419.71.71 0 0 1 0-1.419m5.675 5.3c-.601-1.204-1.987-1.982-3.53-1.982-1.545 0-2.931.778-3.531 1.983-.069.137.008.297.173.356.163.056.354-.008.423-.146.499-1.001 1.652-1.648 2.935-1.648 1.282 0 2.435.647 2.934 1.648.07.138.258.202.424.146.164-.059.242-.219.172-.357"/></svg><svg width="42" height="42" viewBox="-4 -4 42 42" id="icon_bad_34x34" x="84" y="147" xmlns="http://www.w3.org/2000/svg"><path fill="#444" fill-rule="evenodd" d="M17 0c9.389 0 17 7.611 17 17s-7.611 17-17 17S0 26.389 0 17 7.611 0 17 0z"/><path fill="#FFF" fill-rule="evenodd" d="M17 9c-4.411 0-8 3.589-8 8s3.589 8 8 8 8-3.589 8-8-3.589-8-8-8zm2.4 5.585a.8.8 0 1 1 0 1.6.8.8 0 0 1 0-1.6zm-4.8 0a.8.8 0 1 1 0 1.6.8.8 0 0 1 0-1.6zm6.366 6.388c-.196.073-.418-.009-.5-.184-.59-1.272-1.951-2.094-3.466-2.094-1.515 0-2.877.822-3.466 2.093-.082.176-.307.258-.5.185-.194-.073-.286-.276-.204-.452.709-1.53 2.346-2.518 4.17-2.518 1.824 0 3.46.988 4.17 2.517.082.177-.01.38-.204.453z"/></svg><svg width="27" height="27" viewBox="-4 -4 27 27" id="icon_box_arrow_left_19x19" y="255" xmlns="http://www.w3.org/2000/svg"><defs><path id="aga" d="M0 0h19v19H0z"/></defs><g fill="none" fill-rule="evenodd"><g transform="matrix(-1 0 0 1 19 0)"><use fill="#FFF" xlink:href="#aga"/><path stroke="#E0E0E0" d="M.5.5h18v18H.5z"/></g><path fill="#777" d="M11.998 6v.997h-.999v1.01h-.997v1L9.004 9v1.006h.999v1.002h.996v1.003h1V13h-1.997v-.99h-.998L9 11.007H8l-.003-1H7v-1h1.001l-.003-1H9v-1.01h1.002V6z"/></g></svg><svg width="27" height="27" viewBox="-4 -4 27 27" id="icon_box_arrow_right_19x19" x="27" y="255" xmlns="http://www.w3.org/2000/svg"><defs><path id="aha" d="M0 0h19v19H0z"/></defs><g fill="none" fill-rule="evenodd"><use fill="#FFF" xlink:href="#aha"/><path stroke="#E0E0E0" d="M.5.5h18v18H.5z"/><path fill="#777" d="M7.002 6v.997H8v1.01h.997v1L9.994 9v1.006h-.998v1.002H8v1.003H7V13h1.998v-.99h.997L10 11.007h.998l.004-1h.997v-1h-1l.003-1H10v-1.01H8.998V6z"/></g></svg><svg width="22" height="18" viewBox="-4 -4 22 18" id="icon_check_black_14x10" x="268" y="28" xmlns="http://www.w3.org/2000/svg"><path fill="#090909" fill-rule="evenodd" d="M4.682 10a.8.8 0 0 1-.564-.23L.233 5.927a.782.782 0 0 1 0-1.114.803.803 0 0 1 1.127 0l3.322 3.284L12.639.23a.803.803 0 0 1 1.127 0 .781.781 0 0 1 0 1.114L5.246 9.77a.8.8 0 0 1-.564.231"/></svg><svg width="38" height="38" viewBox="-4 -4 38 38" id="icon_close_30x30" x="226" y="84" xmlns="http://www.w3.org/2000/svg"><path fill="#fff" fill-rule="evenodd" d="M28.715 0L15 13.714 1.285-.001 0 1.285 13.715 15 0 28.715 1.285 30 15 16.284 28.715 30l1.286-1.285L16.284 15 30.001 1.285z"/></svg><svg width="26" height="26" viewBox="-4 -4 26 26" id="icon_comment_bg_bottomleft" x="80" y="255" xmlns="http://www.w3.org/2000/svg"><g fill="none" fill-rule="evenodd"><path fill="#FFF" d="M14.996 17.5C7.046 17.5.543 11.03.5 3.078V0H18v17.5h-3.004z"/><path fill="#E0DFDF" d="M0 0v3.081C.044 11.328 6.739 18 14.996 18H18v-1h-3.004C7.32 17 1.041 10.754 1 3.081V0H0z"/></g></svg><svg width="26" height="26" viewBox="-4 -4 26 26" id="icon_comment_bg_bottomright" x="106" y="255" xmlns="http://www.w3.org/2000/svg"><g fill="none" fill-rule="evenodd"><path fill="#FFF" d="M0 17.5V0h17.5v3c0 7.995-6.505 14.5-14.5 14.5H0z"/><path fill="#E0DFDF" d="M17 0v3c0 7.72-6.28 14-14 14H0v1h3c8.284 0 15-6.716 15-15V0h-1z"/></g></svg><svg width="35" height="26" viewBox="-4 -4 35 26" id="icon_comment_bg_topleft" x="226" y="122" xmlns="http://www.w3.org/2000/svg"><g fill="none" fill-rule="evenodd"><path fill="#FFF" d="M9.5 18v-6C9.5 6.298 4.466 2.242 1.812.5h25.192V18H9.5z"/><path fill="#E0DFDF" d="M10 18v-6c0-5.081-3.805-8.885-6.613-11h23.607V0H0s9 4.638 9 12v6h1z"/></g></svg><svg width="26" height="26" viewBox="-4 -4 26 26" id="icon_comment_bg_topright" x="54" y="255" xmlns="http://www.w3.org/2000/svg"><g fill="none" fill-rule="evenodd"><path fill="#FFF" d="M0 18V.5h3C10.995.5 17.5 7.005 17.5 15v3H0z"/><path fill="#E0DFDF" d="M3 1c7.72 0 14 6.28 14 14v3h1v-3C18 6.716 11.284 0 3 0H0v1h3"/></g></svg><svg width="82" height="22" viewBox="-4 -4 82 22" id="icon_fivestar_74x14_gray" x="96" xmlns="http://www.w3.org/2000/svg"><g fill="none" fill-rule="evenodd"><path fill="#DBDBDB" d="M5.374 5.29L5 5.297.5 5.36l3.867 3.049-.104.347-1.277 4.289L7 10.335l.298.2 3.716 2.51-1.38-4.636.284-.224L13.5 5.36l-4.873-.07L7 .618z"/><path stroke="#CACACA" stroke-linecap="round" stroke-linejoin="round" d="M7 .617L5.373 5.29 5 5.297.5 5.36l3.866 3.049-.103.347-1.277 4.288L7 10.334l.298.202 3.716 2.508-1.38-4.635.284-.224L13.5 5.36l-4.873-.07z"/><path fill="#DBDBDB" d="M20.373 5.29L20 5.297l-4.5.064 3.866 3.049-.104.347-1.277 4.289L22 10.335l.3.2 3.715 2.51-1.38-4.636.283-.224L28.5 5.36l-4.874-.07L22 .618z"/><path stroke="#CACACA" stroke-linecap="round" stroke-linejoin="round" d="M22 .617L20.373 5.29 20 5.297l-4.5.063 3.866 3.049-.103.347-1.277 4.288L22 10.334l.298.202 3.716 2.508-1.38-4.635.284-.224L28.5 5.36l-4.873-.07z"/><path fill="#DBDBDB" d="M35.374 5.29L35 5.297l-4.5.064 3.866 3.049-.104.347-1.277 4.289L37 10.335l.299.2 3.716 2.51-1.381-4.636.284-.224L43.5 5.36l-4.872-.07L37 .618z"/><path stroke="#CACACA" stroke-linecap="round" stroke-linejoin="round" d="M37 .617L35.373 5.29 35 5.297l-4.5.063 3.866 3.049-.103.347-1.277 4.288L37 10.334l.298.202 3.716 2.508-1.38-4.635.284-.224L43.5 5.36l-4.873-.07z"/><path fill="#DBDBDB" d="M50.374 5.29L50 5.297l-4.5.064 3.867 3.049-.104.347-1.277 4.289L52 10.335l.298.2 3.716 2.51-1.38-4.636.284-.224L58.5 5.36l-4.873-.07L52 .618z"/><path stroke="#CACACA" stroke-linecap="round" stroke-linejoin="round" d="M52 .617L50.373 5.29 50 5.297l-4.5.063 3.866 3.049-.103.347-1.277 4.288L52 10.334l.298.202 3.716 2.508-1.38-4.635.284-.224L58.5 5.36l-4.873-.07z"/><path fill="#DBDBDB" d="M65.373 5.29L65 5.297l-4.5.064 3.866 3.049-.104.347-1.277 4.289L67 10.335l.3.2 3.715 2.51-1.38-4.636.283-.224L73.5 5.36l-4.874-.07L67 .618z"/><path stroke="#CACACA" stroke-linecap="round" stroke-linejoin="round" d="M67 .617L65.373 5.29 65 5.297l-4.5.063 3.866 3.049-.103.347-1.277 4.288L67 10.334l.298.202 3.716 2.508-1.38-4.635.284-.224L73.5 5.36l-4.873-.07z"/></g></svg><svg width="82" height="22" viewBox="-4 -4 82 22" id="icon_fivestar_74x14_red" x="96" y="22" xmlns="http://www.w3.org/2000/svg"><g fill="none" fill-rule="evenodd"><path fill="#FF5356" d="M5.374 5.29L5 5.297.5 5.36l3.867 3.049-.104.347-1.277 4.289L7 10.335l.298.2 3.716 2.51-1.38-4.636.284-.224L13.5 5.36l-4.873-.07L7 .618z"/><path stroke="#F43435" stroke-linecap="round" stroke-linejoin="round" d="M7 .617L5.373 5.29 5 5.297.5 5.36l3.866 3.049-.103.347-1.277 4.288L7 10.334l.298.202 3.716 2.508-1.38-4.635.284-.224L13.5 5.36l-4.873-.07z"/><path fill="#FF5356" d="M20.373 5.29L20 5.297l-4.5.064 3.866 3.049-.104.347-1.277 4.289L22 10.335l.3.2 3.715 2.51-1.38-4.636.283-.224L28.5 5.36l-4.874-.07L22 .618z"/><path stroke="#F43435" stroke-linecap="round" stroke-linejoin="round" d="M22 .617L20.373 5.29 20 5.297l-4.5.063 3.866 3.049-.103.347-1.277 4.288L22 10.334l.298.202 3.716 2.508-1.38-4.635.284-.224L28.5 5.36l-4.873-.07z"/><path fill="#FF5356" d="M35.374 5.29L35 5.297l-4.5.064 3.866 3.049-.104.347-1.277 4.289L37 10.335l.299.2 3.716 2.51-1.381-4.636.284-.224L43.5 5.36l-4.872-.07L37 .618z"/><path stroke="#F43435" stroke-linecap="round" stroke-linejoin="round" d="M37 .617L35.373 5.29 35 5.297l-4.5.063 3.866 3.049-.103.347-1.277 4.288L37 10.334l.298.202 3.716 2.508-1.38-4.635.284-.224L43.5 5.36l-4.873-.07z"/><path fill="#FF5356" d="M50.374 5.29L50 5.297l-4.5.064 3.867 3.049-.104.347-1.277 4.289L52 10.335l.298.2 3.716 2.51-1.38-4.636.284-.224L58.5 5.36l-4.873-.07L52 .618z"/><path stroke="#F43435" stroke-linecap="round" stroke-linejoin="round" d="M52 .617L50.373 5.29 50 5.297l-4.5.063 3.866 3.049-.103.347-1.277 4.288L52 10.334l.298.202 3.716 2.508-1.38-4.635.284-.224L58.5 5.36l-4.873-.07z"/><path fill="#FF5356" d="M65.373 5.29L65 5.297l-4.5.064 3.866 3.049-.104.347-1.277 4.289L67 10.335l.3.2 3.715 2.51-1.38-4.636.283-.224L73.5 5.36l-4.874-.07L67 .618z"/><path stroke="#F43435" stroke-linecap="round" stroke-linejoin="round" d="M67 .617L65.373 5.29 65 5.297l-4.5.063 3.866 3.049-.103.347-1.277 4.288L67 10.334l.298.202 3.716 2.508-1.38-4.635.284-.224L73.5 5.36l-4.873-.07z"/></g></svg><svg version="1.1" id="icon_good_26x26" x="204" y="189" viewBox="-4 -4 34 34" xml:space="preserve" width="34" height="34" xmlns="http://www.w3.org/2000/svg"><style>.aqst0{fill:#ea4e2e}.aqst1{fill:#fff}</style><path class="aqst0" d="M13 0c7.2 0 13 5.8 13 13s-5.8 13-13 13S0 20.2 0 13 5.8 0 13 0z"/><path class="aqst1" d="M13 6c-3.9 0-7 3.1-7 7s3.1 7 7 7 7-3.1 7-7-3.1-7-7-7m3.7 8.3c-.6 1.4-2.1 2.2-3.7 2.2s-3-.9-3.7-2.2c-.1-.2 0-.3.2-.4.2-.1.4 0 .4.2.5 1.1 1.7 1.9 3 1.9s2.5-.7 3-1.9c.1-.2.3-.2.4-.2.3.1.4.2.4.4m-1.6-3.4c.4 0 .7.3.7.7s-.3.7-.7.7-.7-.3-.7-.7.3-.7.7-.7m-4.2 0c.4 0 .7.3.7.7s-.3.7-.7.7-.7-.3-.7-.7.3-.7.7-.7"/></svg><svg width="42" height="42" viewBox="-4 -4 42 42" id="icon_good_34x34" x="178" y="46" xmlns="http://www.w3.org/2000/svg"><path fill="#EA4E2E" fill-rule="evenodd" d="M17 0c9.389 0 17 7.611 17 17s-7.611 17-17 17S0 26.389 0 17 7.611 0 17 0z"/><path fill="#FFF" fill-rule="evenodd" d="M17 9c-4.411 0-8 3.589-8 8s3.589 8 8 8 8-3.589 8-8-3.589-8-8-8zm2.4 5.585a.8.8 0 1 1 0 1.6.8.8 0 0 1 0-1.6zm-4.8 0a.8.8 0 1 1 0 1.6.8.8 0 0 1 0-1.6zm6.57 3.901c-.71 1.548-2.346 2.549-4.17 2.549-1.824 0-3.461-1.001-4.17-2.55-.082-.178.01-.383.204-.458.193-.073.418.01.5.187.589 1.288 1.951 2.121 3.466 2.121 1.515 0 2.876-.833 3.466-2.121.082-.177.304-.261.5-.187.194.075.286.28.204.459z"/></svg><svg width="42" height="42" viewBox="-4 -4 42 42" id="icon_mask_gray_34x34" x="126" y="147" xmlns="http://www.w3.org/2000/svg"><g fill="none" fill-rule="evenodd"><path fill="#f8f9fb" d="M17 0c9.389 0 17 7.611 17 17V0H17zm0 0H0v17C0 7.611 7.611 0 17 0zm0 34h17V17c0 9.389-7.611 17-17 17zM0 17v17h17C7.611 34 0 26.389 0 17z"/><path fill="#000" fill-opacity=".1" d="M17 0C7.611 0 0 7.611 0 17s7.611 17 17 17 17-7.611 17-17S26.389 0 17 0m0 1c8.822 0 16 7.178 16 16s-7.178 16-16 16S1 25.822 1 17 8.178 1 17 1"/></g></svg><svg width="42" height="42" viewBox="-4 -4 42 42" id="icon_mask_white_34x34" x="168" y="147" xmlns="http://www.w3.org/2000/svg"><g fill="none" fill-rule="evenodd"><path fill="#FFF" d="M17 0c9.389 0 17 7.611 17 17V0H17zm0 0H0v17C0 7.611 7.611 0 17 0zm0 34h17V17c0 9.389-7.611 17-17 17zM0 17v17h17C7.611 34 0 26.389 0 17z"/><path fill="#000" fill-opacity=".1" d="M17 0C7.611 0 0 7.611 0 17s7.611 17 17 17 17-7.611 17-17S26.389 0 17 0m0 1c8.822 0 16 7.178 16 16s-7.178 16-16 16S1 25.822 1 17 8.178 1 17 1"/></g></svg><svg width="32" height="32" viewBox="-4 -4 32 32" id="icon_mov_24x24" y="223" xmlns="http://www.w3.org/2000/svg"><defs><path id="aub" d="M20 10c0 5.523-4.477 10-10 10S0 15.523 0 10 4.477 0 10 0s10 4.477 10 10"/><filter id="aua" width="140%" height="140%" x="-20%" filterUnits="objectBoundingBox"><feOffset dy="2" in="SourceAlpha" result="shadowOffsetOuter1"/><feGaussianBlur in="shadowOffsetOuter1" result="shadowBlurOuter1" stdDeviation="1"/><feComposite in="shadowBlurOuter1" in2="SourceAlpha" operator="out" result="shadowBlurOuter1"/><feColorMatrix in="shadowBlurOuter1" values="0 0 0 0 0 0 0 0 0 0 0 0 0 0 0 0 0 0 0.2 0"/></filter></defs><g fill="none" fill-rule="evenodd"><g transform="translate(2)"><use fill="#000" filter="url(#aua)" xlink:href="#aub"/><use fill="#FFF" fill-opacity="0" xlink:href="#aub"/></g><path fill="#FFF" d="M22 10c0 5.523-4.477 10-10 10S2 15.523 2 10 6.477 0 12 0s10 4.477 10 10" opacity=".9"/><path fill="#242424" d="M16.567 9.244l-6.272-3.628a.855.855 0 0 0-.86 0A.873.873 0 0 0 9 6.372v7.256c0 .31.166.6.434.756a.859.859 0 0 0 .862-.001l6.27-3.627a.878.878 0 0 0 0-1.512"/></g></svg><svg width="34" height="24" viewBox="-4 -4 34 24" id="icon_nomovie_26x16" x="226" y="148" xmlns="http://www.w3.org/2000/svg"><path fill-rule="evenodd" d="M0 16h18V0H0v16zM20 4v8l6 3V1l-6 3z" opacity=".122"/></svg><svg width="30" height="30" viewBox="-4 -4 30 30" id="icon_nophoto_22x22" x="238" y="189" xmlns="http://www.w3.org/2000/svg"><path fill-rule="evenodd" d="M1 1h19.998v20H1V1zM0 0l.024 22h21.954L22 0H0zm15 9c1.103 0 2-.897 2-1.998A2.003 2.003 0 0 0 15 5a2 2 0 1 0 0 4zm-8.52 2l5.887 4.403 2.973-2.137L19 16.262V19H3.002v-4.756L6.479 11z" opacity=".15"/></svg><svg width="34" height="34" viewBox="-4 -4 34 34" id="icon_normal_26x26" x="34" y="189" xmlns="http://www.w3.org/2000/svg"><path fill="#89939B" fill-rule="evenodd" d="M13 0c7.18 0 13 5.82 13 13s-5.82 13-13 13S0 20.18 0 13 5.82 0 13 0z"/><path fill="#FFF" fill-rule="evenodd" d="M13 5.917c-3.905 0-7.083 3.178-7.083 7.083 0 3.905 3.178 7.083 7.083 7.083 3.905 0 7.083-3.178 7.083-7.083 0-3.905-3.178-7.083-7.083-7.083m2.125 4.945a.708.708 0 1 1 0 1.416.708.708 0 0 1 0-1.416m-4.25 0a.707.707 0 1 1 .001 1.415.707.707 0 0 1-.001-1.415m5.224 4.794H9.901a.442.442 0 0 1 0-.885h6.198a.442.442 0 0 1 0 .885"/></svg><svg width="42" height="42" viewBox="-4 -4 42 42" id="icon_normal_34x34" x="226" y="42" xmlns="http://www.w3.org/2000/svg"><path fill="#89939B" fill-rule="evenodd" d="M17 0c9.389 0 17 7.611 17 17s-7.611 17-17 17S0 26.389 0 17 7.611 0 17 0z"/><path fill="#FFF" fill-rule="evenodd" d="M17 25c-4.411 0-8-3.589-8-8s3.589-8 8-8 8 3.589 8 8-3.589 8-8 8zm-2.4-10.415a.8.8 0 1 0 0 1.6.8.8 0 0 0 0-1.6zm4.8 0a.8.8 0 1 0 0 1.6.8.8 0 0 0 0-1.6zM20.5 19h-7a.5.5 0 0 0 0 1h7a.5.5 0 0 0 0-1z"/></svg><svg width="60" height="56" viewBox="-4 -4 60 56" id="icon_people" x="60" y="88" xmlns="http://www.w3.org/2000/svg"><path fill="#D3D6D9" fill-rule="evenodd" d="M51.998 33.23v-.154a2.954 2.954 0 0 0-1.337-2.246l-11.657-7.155v-2.559c2.259-1.65 3.915-4.388 3.915-7.494V9.134c0-5.044-4.31-9.134-9.13-9.134-2.39 0-4.555 1.01-6.131 2.64 1.176 1.868 2.274 4.097 2.274 6.494v4.488c0 3.276-1.712 6.384-3.955 8.606l10.377 6.237.477.298.07.096a5.67 5.67 0 0 1 1.988 3.291l.115.208v.718l.005.235c0 .059-.001.116-.005.173V48h12.994V33.388c.005-.106 0-.132 0-.158m-16.91-2.4l-11.513-7.158v-2.556c2.261-1.652 3.715-4.39 3.715-7.494V9.133C27.29 4.088 23.037 0 18.217 0 13.4 0 9.094 4.088 9.094 9.133v4.49c0 3.104 1.637 5.841 3.895 7.493v2.556L1.376 30.798A2.962 2.962 0 0 0 0 33.308c0 .074.006.144.012.215V48h36.61V33.385c.003-.07.003-.174 0-.31-.085-.958-.795-1.778-1.534-2.246"/></svg><svg width="34" height="34" viewBox="-4 -4 34 34" id="icon_premium_bad_26x26" x="136" y="189" xmlns="http://www.w3.org/2000/svg"><path fill="#444" fill-rule="evenodd" d="M13 0c7.18 0 13 5.82 13 13s-5.82 13-13 13S0 20.18 0 13 5.82 0 13 0z"/><path fill="#FFF" fill-rule="evenodd" d="M19.083 7.99H9.99v6.548l1.48 5.452 2.111-1.36.04-3.274h6.371l-.909-7.366zM6.991 14.001h2.007V7.989H6.991v6.012z"/></svg><svg width="42" height="42" viewBox="-4 -4 42 42" id="icon_premium_bad_34x34" y="147" xmlns="http://www.w3.org/2000/svg"><path fill="#444" fill-rule="evenodd" d="M17 0c9.389 0 17 7.611 17 17s-7.611 17-17 17S0 26.389 0 17 7.611 0 17 0z"/><path fill="#FFF" fill-rule="evenodd" d="M24 11H14v8l1.628 6.661L17.95 24l.043-4H25l-1-9zm-14 7h3v-7h-3v7z"/></svg><svg width="34" height="34" viewBox="-4 -4 34 34" id="icon_premium_good_26x26" x="170" y="189" xmlns="http://www.w3.org/2000/svg"><path fill="#EA4E2E" fill-rule="evenodd" d="M13 0c7.18 0 13 5.82 13 13s-5.82 13-13 13S0 20.18 0 13 5.82 0 13 0z"/><path fill="#FFF" fill-rule="evenodd" d="M19.083 18.01H9.99v-6.548l1.48-5.452 2.111 1.36.04 3.274h6.372l-.91 7.366zM6.991 11.999h2.007v6.012H6.991v-6.012z"/></svg><svg width="42" height="42" viewBox="-4 -4 42 42" id="icon_premium_good_34x34" x="178" y="88" xmlns="http://www.w3.org/2000/svg"><path fill="#EA4E2E" fill-rule="evenodd" d="M17 0c9.389 0 17 7.611 17 17s-7.611 17-17 17S0 26.389 0 17 7.611 0 17 0z"/><path fill="#FFF" fill-rule="evenodd" d="M24 23H14v-8l1.628-6.661L17.95 10l.043 4H25l-1 9zm-14-7h3v7h-3v-7z"/></svg><svg width="34" height="34" viewBox="-4 -4 34 34" id="icon_premium_normal_26x26" y="189" xmlns="http://www.w3.org/2000/svg"><path fill="#89939B" fill-rule="evenodd" d="M13 0c7.18 0 13 5.82 13 13s-5.82 13-13 13S0 20.18 0 13 5.82 0 13 0z"/><path fill="#FFF" fill-rule="evenodd" d="M18.625 15h-.212a1.376 1.376 0 0 1-1.375-1.375v-.25c0-.759.616-1.375 1.375-1.375h.212c.759 0 1.375.616 1.375 1.375v.25c0 .759-.616 1.375-1.375 1.375zm-5.508 0h-.234a1.397 1.397 0 0 1-1.397-1.398v-.204c0-.772.625-1.398 1.397-1.398h.234c.772 0 1.397.626 1.397 1.398v.204c0 .772-.625 1.398-1.397 1.398zm-5.538 0h-.196A1.383 1.383 0 0 1 6 13.617v-.234C6 12.619 6.619 12 7.383 12h.196c.763 0 1.383.619 1.383 1.383v.234c0 .764-.62 1.383-1.383 1.383z"/></svg><svg width="42" height="42" viewBox="-4 -4 42 42" id="icon_premium_normal_34x34" x="226" xmlns="http://www.w3.org/2000/svg"><path fill="#89939B" fill-rule="evenodd" d="M17 0c9.389 0 17 7.611 17 17s-7.611 17-17 17S0 26.389 0 17 7.611 0 17 0z"/><path fill="#FFF" fill-rule="evenodd" d="M23 19a2 2 0 1 1-.001-3.999A2 2 0 0 1 23 19zm-6 0a2 2 0 1 1-.001-3.999A2 2 0 0 1 17 19zm-6 0a2 2 0 1 1-.001-3.999A2 2 0 0 1 11 19z"/></svg><svg width="34" height="34" viewBox="-4 -4 34 34" id="icon_premium_verygood_26x26" x="102" y="189" xmlns="http://www.w3.org/2000/svg"><path fill="#EA4E2E" fill-rule="evenodd" d="M13 0c7.18 0 13 5.82 13 13s-5.82 13-13 13S0 20.18 0 13 5.82 0 13 0z"/><path fill="#FFF" fill-rule="evenodd" d="M20.716 11.953H18.42v.801h2.2l-.191 1.604H18.42v.801h1.913l-.191 1.604h-3.444v-5.612L13 11V9l.795-3.991 1.999 1.332.038 3.207h5.171l-.287 2.405zm-5.813 6.037H7.994l.095-6.839L9.49 6.613l1.999 1.331.038 4.009h4.31l-.934 6.037zM5 12h2v6l-1.985-.01L5 12z"/></svg><svg width="42" height="42" viewBox="-4 -4 42 42" id="icon_premium_verygood_34x34" x="42" y="147" xmlns="http://www.w3.org/2000/svg"><path fill="#EA4E2E" fill-rule="evenodd" d="M17 0c9.389 0 17 7.611 17 17s-7.611 17-17 17S0 26.389 0 17 7.611 0 17 0z"/><path fill="#FFF" fill-rule="evenodd" d="M26.667 16H24v1h2.556l-.223 2H24v1h2.222L26 22h-4v-7h-5v-2l1.628-5.661L20.95 9l.043 4H27l-.333 3zM20 23h-8v-8l1.628-5.661L15.95 11l.043 5H21l-1 7zM8 16h3v7H8v-7z"/></svg><svg width="58" height="26" viewBox="-4 -4 58 26" id="icon_seller" x="96" y="44" xmlns="http://www.w3.org/2000/svg"><defs><path id="bia" d="M46 9h-1v5h-1V4h1v4h1v1zm-3-4h-3v3h1v2h1v2h1v1h-1v-1h-1v-2h-1V8h-1v3h-1v2h-1v-2h1V8h1V5h-2V4h6v1zm-8 9h-1V9h-1v5h-1V4h1v4h1V4h1v10zm-8-1h4V4h-4v9zm-1-5h-1v3h-1V4h1v3h1v1zm-1 6h-7v-3h1v2h6v1zm-8-5h1V6h1v3h2V6h1v3h1v1h-6V9zm0-4h6V4h-6v1zm31-5H14a2 2 0 0 0-2 2v14a2 2 0 0 0 2 2h34a2 2 0 0 0 2-2V2a2 2 0 0 0-2-2zM28 12h2V5h-2v7z"/><filter id="bib" width="102.6%" height="105.6%" x="-1.3%" y="-2.8%" filterUnits="objectBoundingBox"><feGaussianBlur in="SourceAlpha" result="shadowBlurInner1" stdDeviation=".5"/><feOffset in="shadowBlurInner1" result="shadowOffsetInner1"/><feComposite in="shadowOffsetInner1" in2="SourceAlpha" k2="-1" k3="1" operator="arithmetic" result="shadowInnerInner1"/><feColorMatrix in="shadowInnerInner1" values="0 0 0 0 0 0 0 0 0 0 0 0 0 0 0 0 0 0 0.7 0"/></filter></defs><g fill="none" fill-rule="evenodd"><path fill="#FFF" d="M13 1h36v16H13z"/><use fill="#A3A9B3" xlink:href="#bia"/><use fill="#000" filter="url(#bib)" xlink:href="#bia"/><path fill="#C2C2C2" d="M1 8V1H0v8h8V8H1z"/></g></svg><svg width="48" height="48" viewBox="-4 -4 48 48" id="icon_smile" x="120" y="88" xmlns="http://www.w3.org/2000/svg"><path fill="#D3D6D9" fill-rule="evenodd" d="M29.654 23.158c-1.643 4-5.432 6.586-9.654 6.586-4.222 0-8.012-2.586-9.654-6.586a1.177 1.177 0 0 1 .607-1.528 1.128 1.128 0 0 1 1.49.622c1.287 3.133 4.253 5.157 7.557 5.157 3.304 0 6.27-2.024 7.556-5.157.244-.594.91-.872 1.491-.622.58.25.85.935.607 1.528M14.36 14.36a2.051 2.051 0 1 1 0 4.102 2.051 2.051 0 0 1 0-4.102m11.282 0a2.051 2.051 0 1 1 0 4.102 2.051 2.051 0 0 1 0-4.102M0 20c0 11.044 8.954 20 19.999 20C31.045 40 40 31.044 40 20 40 8.957 31.046 0 20 0 8.955 0 0 8.957 0 20z"/></svg><svg width="60" height="59" viewBox="-4 -4 60 59" id="icon_textballoon_52x51" y="88" xmlns="http://www.w3.org/2000/svg"><path fill="#D3D6D9" fill-rule="evenodd" d="M35.455 20.101a2.364 2.364 0 1 1 4.728.004 2.364 2.364 0 0 1-4.728-.004zm-11.819 0a2.364 2.364 0 1 1 4.729.004 2.364 2.364 0 0 1-4.729-.004zm-11.818 0a2.364 2.364 0 1 1 4.729.004 2.364 2.364 0 0 1-4.729-.004zM18.482.005C8.116.967 0 9.573 0 20.06c0 10.752 8.536 19.515 19.274 20.095L25.972 51l6.692-10.845C43.434 39.608 52 30.832 52 20.06 52 9.55 43.851.93 33.451 0L18.482.005z"/></svg><svg width="48" height="46" viewBox="-4 -4 48 46" id="icon_thumbup_38x38" x="178" xmlns="http://www.w3.org/2000/svg"><path fill="#D3D6D9" fill-rule="evenodd" d="M39.427 17.752l-2.858 20.225H10.272v-18.84l5.31-19.145s7.646.55 7.646 6.69v7.464l12.597-.004s4.117-.18 3.602 3.61zM.954 19.838h7.043v18.139H.954V19.838z"/></svg><svg width="33" height="15" viewBox="-4 -4 33 15" id="text_best_red" x="226" y="172" xmlns="http://www.w3.org/2000/svg"><path fill="#F44844" fill-rule="evenodd" d="M3.797 2.848c.72 0 1.148-.263 1.148-.826 0-.35-.265-.613-.884-.613h-1.32l-.356 1.44h1.412zM3.342 5.59c.701 0 1.138-.33 1.138-.856 0-.398-.3-.64-.874-.64h-1.54L1.693 5.59h1.65zM1.712.096h2.477c1.502 0 2.158.76 2.158 1.673 0 .904-.546 1.487-1.366 1.682.528.262.893.68.893 1.38 0 1.216-.975 2.072-2.742 2.072H0L1.711.096zm6.53.001h4.763l-.337 1.332h-3.37l-.346 1.39h2.96l-.337 1.313h-2.96l-.364 1.44h3.425l-.337 1.331H6.53L8.242.097zm4.144 5.648l1.057-.953c.501.584 1.056.895 1.785.895.565 0 .974-.282.974-.71 0-.33-.227-.525-1.083-.894-.829-.36-1.567-.836-1.567-1.837C13.552.856 14.718 0 16.084 0c1.093 0 1.85.398 2.386 1.01l-.965 1.031c-.483-.477-.91-.729-1.53-.729-.592 0-.929.35-.929.691 0 .36.255.515 1.12.893.874.38 1.53.846 1.53 1.838 0 1.43-1.193 2.266-2.532 2.266-1.229 0-2.177-.428-2.778-1.255zm8.425-4.268h-1.94l.346-1.38H24.5l-.347 1.38h-1.94l-1.366 5.426h-1.402l1.366-5.426z"/></svg><svg width="25" height="28" viewBox="-4 -4 25 28" id="text_number_0" x="225" y="223" xmlns="http://www.w3.org/2000/svg"><path fill="#313131" fill-rule="evenodd" d="M8.527 16.16c-2.542 0-4.209-2.624-4.209-6.188 0-3.563 1.613-6.132 4.154-6.132 2.542 0 4.209 2.651 4.209 6.187 0 3.536-1.612 6.133-4.154 6.133m0-16.16C3.416 0 0 4.392 0 10.027 0 15.663 3.361 20 8.472 20 13.583 20 17 15.608 17 9.972 17 4.337 13.638 0 8.527 0"/></svg><svg width="17" height="28" viewBox="-4 -4 17 28" id="text_number_1" x="250" y="223" xmlns="http://www.w3.org/2000/svg"><path fill="#313131" fill-rule="evenodd" d="M0 1.702l.941 3.574 3.588-.851V20H9V0H5.912z"/></svg><svg width="23" height="28" viewBox="-4 -4 23 28" id="text_number_2" x="63" y="223" xmlns="http://www.w3.org/2000/svg"><path fill="#313131" fill-rule="evenodd" d="M7.529 3.887c1.593 0 2.722.901 2.722 2.563 0 1.634-.985 2.705-3.504 4.733L0 16.563V20h15v-3.747H6.168l3.301-2.479c3.591-2.704 5.328-4.366 5.328-7.662C14.797 2.422 12.133 0 7.819 0 4.199 0 2.259 1.436.261 4.084l3.127 2.451c1.506-1.803 2.577-2.648 4.141-2.648"/></svg><svg width="23" height="28" viewBox="-4 -4 23 28" id="text_number_3" x="268" xmlns="http://www.w3.org/2000/svg"><path fill="#313131" fill-rule="evenodd" d="M9.029 3.708L4.258 8.427l.685 2.753h1.829c2.514 0 3.914.899 3.914 2.528 0 1.489-1.171 2.416-2.828 2.416-2.029 0-3.458-.843-4.829-2.36L0 16.601C1.715 18.596 4.2 20 7.8 20c4.458 0 7.2-2.725 7.2-6.461 0-3.679-2.628-5.084-5.371-5.533l5.057-4.747V0H1.172v3.708h7.857z"/></svg><svg width="25" height="28" viewBox="-4 -4 25 28" id="text_number_4" x="200" y="223" xmlns="http://www.w3.org/2000/svg"><path fill="#313131" fill-rule="evenodd" d="M10.262 12.17H5.061l5.201-6.184v6.184zm4.11 0V0h-3.635L0 12.624l.7 3.092h9.562V20h4.11v-4.284H17V12.17h-2.628z"/></svg><svg width="23" height="28" viewBox="-4 -4 23 28" id="text_number_5" x="177" y="223" xmlns="http://www.w3.org/2000/svg"><path fill="#313131" fill-rule="evenodd" d="M1.335 9.691l2.528 1.657c.938-.393 2.074-.73 3.324-.73 2.131 0 3.523.983 3.523 2.697 0 1.769-1.278 2.752-3.324 2.752-1.761 0-3.238-.786-4.744-2.134L0 17.051C1.932 18.876 4.261 20 7.443 20 12.017 20 15 17.36 15 13.174c0-4.466-3.04-6.32-6.96-6.32-1.108 0-1.819.14-2.614.337l.227-3.399h8.466V0H1.903l-.568 9.691z"/></svg><svg width="23" height="28" viewBox="-4 -4 23 28" id="text_number_6" x="154" y="223" xmlns="http://www.w3.org/2000/svg"><path fill="#313131" fill-rule="evenodd" d="M7.582 16.354c-2.065 0-3.315-1.215-3.315-2.901 0-1.657 1.195-2.817 3.261-2.817 2.065 0 3.315 1.188 3.315 2.845 0 1.685-1.196 2.873-3.261 2.873M8.316 7.1c-1.875 0-2.989.608-3.941 1.243.272-2.541 1.468-4.475 3.832-4.475 1.63 0 2.636.58 3.886 1.547l2.201-3.288C12.609.774 10.924 0 8.343 0 2.664 0 0 4.586 0 10.581c0 3.867.87 5.939 2.256 7.348C3.587 19.282 5.272 20 7.745 20 11.875 20 15 17.266 15 13.288 15 9.227 12.093 7.1 8.316 7.1"/></svg><svg width="22" height="28" viewBox="-4 -4 22 28" id="text_number_7" x="132" y="223" xmlns="http://www.w3.org/2000/svg"><path fill="#313131" fill-rule="evenodd" d="M0 3.8h9.139L.444 20h4.834L14 3.314V0H0z"/></svg><svg width="23" height="28" viewBox="-4 -4 23 28" id="text_number_8" x="109" y="223" xmlns="http://www.w3.org/2000/svg"><path fill="#313131" fill-rule="evenodd" d="M7.5 16.472c-2.111 0-3.361-1.056-3.361-2.444 0-1.528 1.417-2.417 3.361-2.417 1.944 0 3.361.889 3.361 2.417 0 1.388-1.25 2.444-3.361 2.444m0-12.944c1.75 0 2.778 1.083 2.778 2.305 0 1.389-1.084 2.389-2.778 2.389S4.722 7.194 4.722 5.805c0-1.222 1.028-2.277 2.778-2.277m4.361 6.111c1.5-.917 2.472-2.167 2.472-4.278 0-3-2.722-5.361-6.833-5.361C3.389 0 .667 2.361.667 5.361c0 2.111.972 3.361 2.472 4.278C1.083 10.583 0 11.972 0 14.361 0 17.778 3.194 20 7.5 20s7.5-2.111 7.5-5.75c0-2.334-1.167-3.584-3.139-4.611"/></svg><svg width="23" height="28" viewBox="-4 -4 23 28" id="text_number_9" x="86" y="223" xmlns="http://www.w3.org/2000/svg"><path fill="#313131" fill-rule="evenodd" d="M7.473 9.53c-2.065 0-3.315-1.188-3.315-2.928 0-1.741 1.168-2.956 3.233-2.956 2.093 0 3.343 1.243 3.343 2.983 0 1.686-1.196 2.901-3.261 2.901m5.272-7.431C11.305.635 9.81 0 7.256 0 2.962 0 0 2.873 0 6.795c0 3.95 2.663 6.271 6.794 6.271 1.657 0 2.934-.525 3.858-1.326-.271 2.597-1.521 4.392-3.858 4.392-1.604 0-2.772-.525-4.158-1.657L.435 17.707C2.038 19.06 3.913 20 6.685 20 12.093 20 15 15.718 15 9.419c0-3.839-.897-5.939-2.255-7.32"/></svg><svg width="13" height="16" viewBox="-4 -4 13 16" id="text_number_comma" x="268" y="74" xmlns="http://www.w3.org/2000/svg"><path fill="#313131" fill-rule="evenodd" d="M2.35 4H.977V0H5v3.354C5 6.633 3.165 7.949.313 8L0 6.26C1.655 6.086 2.494 5.416 2.374 4h-.023z"/></svg><svg width="31" height="28" viewBox="-4 -4 31 28" id="text_number_percent" x="32" y="223" xmlns="http://www.w3.org/2000/svg"><path fill="#313131" fill-rule="evenodd" d="M4.994 10.472C1.998 10.472 0 8.14 0 5.278v-.056C0 2.362 1.97 0 5.022 0c3.024 0 4.994 2.361 4.994 5.194v.056c0 2.861-2.026 5.222-5.022 5.222zm-2.858 9.25L17.118.278h3.746L5.882 19.722H2.136zM17.978 20c-2.996 0-4.994-2.361-4.994-5.194v-.056c0-2.861 1.97-5.222 5.022-5.222C21.03 9.528 23 11.86 23 14.722v.056C23 17.61 20.975 20 17.978 20zM5.022 7.417c.943 0 1.609-.917 1.609-2.14v-.055c0-1.222-.694-2.166-1.637-2.166-.971 0-1.61.916-1.61 2.138v.056c0 1.25.722 2.167 1.638 2.167zm12.984 9.527c.943 0 1.61-.916 1.61-2.138v-.056c0-1.25-.694-2.167-1.638-2.167-.999 0-1.609.89-1.609 2.14v.055c0 1.222.721 2.166 1.637 2.166z"/></svg></svg>